<?xml version="1.0" standalone="no"?>
<svg version="1.0" xmlns="http://www.w3.org/2000/svg"
 width="1024.000000pt" height="596.000000pt" viewBox="0 0 1024.000000 596.000000"
 preserveAspectRatio="xMidYMid meet">

<g transform="translate(0.000000,596.000000) scale(0.100000,-0.100000)"
fill="#008000" stroke="none">
<path d="M4839 5781 l-29 -29 0 -820 0 -820 -67 -38 c-215 -119 -761 -439
-778 -455 -19 -19 -20 -35 -23 -503 l-3 -484 23 -26 c18 -20 683 -412 816
-480 l32 -17 0 -900 0 -901 29 -29 29 -29 2571 0 2571 0 32 29 33 29 0 2722 0
2722 -33 29 -32 29 -2571 0 -2571 0 -29 -29z m5197 -14 l24 -28 0 -2708 0
-2708 -21 -27 -20 -26 -2574 0 c-2518 0 -2573 0 -2596 19 l-24 19 -3 900 -2
899 307 176 c482 277 536 310 550 337 18 36 18 944 0 980 -13 26 -79 66 -584
356 l-273 157 0 803 c0 485 4 813 10 828 22 59 -173 55 2623 53 l2559 -2 24
-28z m-5458 -2258 c29 -11 39 -22 266 -293 l191 -228 5 241 5 241 28 27 c37
38 97 37 136 -1 l26 -26 3 -333 c4 -366 0 -397 -48 -422 -44 -23 -111 -19
-151 8 -19 12 -127 134 -241 270 l-208 248 0 -231 c0 -245 -5 -276 -49 -300
-26 -13 -77 -13 -103 1 -44 24 -48 58 -48 401 0 287 2 327 18 358 27 55 90 69
170 39z"/>
<path d="M5170 5530 l0 -70 33 0 c45 0 66 18 73 61 8 48 -20 79 -71 79 l-35 0
0 -70z m88 28 c20 -41 -2 -82 -46 -86 l-32 -3 0 61 0 61 32 -3 c24 -2 36 -10
46 -30z"/>
<path d="M5408 5572 c-2 -10 -1 -37 2 -62 4 -35 9 -45 25 -48 18 -2 18 -2 3 8
-21 13 -25 77 -5 82 9 2 8 7 -4 20 -16 15 -17 15 -21 0z"/>
<path d="M5911 5578 c0 -9 -7 -19 -13 -21 -10 -4 -10 -6 0 -6 8 -1 12 -17 12
-46 0 -40 2 -45 23 -44 16 1 18 2 5 6 -13 3 -18 15 -18 43 0 28 5 40 18 43 15
4 15 5 0 6 -9 0 -19 9 -21 19 -4 15 -5 15 -6 0z"/>
<path d="M5314 5556 c-18 -13 -17 -14 15 -13 45 3 53 -21 9 -25 -28 -2 -33 -7
-33 -28 0 -22 4 -25 38 -26 l37 -1 0 43 c0 33 -5 46 -19 54 -25 13 -23 13 -47
-4z m54 -63 c-4 -22 -58 -31 -58 -10 0 20 10 27 37 27 18 0 24 -5 21 -17z"/>
<path d="M5487 5557 c-16 -11 -15 -12 10 -12 36 0 46 -19 13 -23 -29 -4 -51
-28 -43 -48 4 -10 18 -14 44 -12 38 2 39 3 39 39 0 34 -20 69 -39 69 -4 0 -15
-6 -24 -13z m53 -51 c0 -20 -16 -36 -36 -36 -17 0 -24 6 -24 20 0 16 7 20 30
20 17 0 30 -2 30 -4z"/>
<path d="M5592 5554 c-24 -17 -30 -62 -10 -82 18 -18 54 -15 69 6 11 14 11 15
-1 5 -33 -30 -77 -2 -66 42 7 27 42 35 64 13 7 -7 12 -9 12 -6 0 9 -30 38 -38
38 -4 0 -18 -7 -30 -16z"/>
<path d="M5702 5554 c-24 -17 -30 -62 -10 -82 18 -18 65 -15 73 6 5 14 4 15
-6 5 -18 -17 -56 -16 -62 1 -4 11 4 16 31 18 42 3 53 26 27 52 -20 20 -25 20
-53 0z m56 -21 c2 -9 -8 -13 -32 -13 -28 0 -34 3 -29 16 7 18 54 16 61 -3z"/>
<path d="M5813 5563 c-21 -4 -23 -10 -22 -56 1 -48 2 -49 8 -17 9 47 18 60 41
60 19 0 24 -10 33 -70 3 -15 5 -8 6 17 1 38 -18 75 -37 72 -4 -1 -17 -4 -29
-6z"/>
<path d="M5980 5550 c-22 -22 -25 -42 -10 -71 14 -25 65 -26 75 -1 5 14 4 15
-6 5 -18 -17 -56 -16 -62 1 -4 11 4 16 31 18 42 3 53 26 27 52 -21 21 -31 20
-55 -4z m58 -17 c2 -9 -8 -13 -32 -13 -28 0 -34 3 -29 16 7 18 54 16 61 -3z"/>
<path d="M7407 5468 l-167 -101 2 -501 3 -501 311 -3 310 -2 175 86 c96 47
177 91 181 98 9 13 11 987 2 1010 -5 14 -43 16 -328 16 l-321 -1 -168 -101z
m586 -13 l-131 -75 -258 2 -258 3 119 72 120 72 270 1 270 0 -132 -75z m192
-417 l0 -473 -152 -78 -153 -78 0 468 0 468 143 82 c78 45 147 82 152 82 8 1
11 -149 10 -471z m-347 -170 l2 -468 -280 0 -280 0 0 470 0 470 278 -2 277 -3
3 -467z"/>
<path d="M7386 4821 c-16 -25 27 -31 175 -29 137 3 154 5 157 21 3 16 -10 17
-162 17 -91 0 -167 -4 -170 -9z"/>
<path d="M7387 4693 c-4 -3 -2 -12 4 -20 9 -10 47 -13 154 -13 151 0 175 4
175 26 0 11 -30 14 -163 14 -90 0 -167 -3 -170 -7z"/>
<path d="M7385 4561 c-9 -16 11 -22 98 -28 113 -8 237 4 237 23 0 11 -29 14
-164 14 -91 0 -167 -4 -171 -9z"/>
<path d="M6070 5509 c0 -27 5 -49 10 -49 6 0 10 18 10 40 0 26 6 42 17 48 13
8 11 10 -10 10 -26 0 -27 -3 -27 -49z"/>
<path d="M6383 4332 c-317 -184 -493 -292 -493 -302 0 -22 20 -40 45 -39 11 0
234 125 495 278 491 288 503 296 470 337 -7 7 -15 14 -19 14 -3 0 -228 -130
-498 -288z"/>
<path d="M8473 4420 c-10 -14 -8 -22 10 -38 21 -20 35 -21 210 -22 189 -2 217
3 217 35 0 27 -32 33 -226 38 -186 5 -201 4 -211 -13z"/>
<path d="M9300 4384 c-104 -18 -144 -29 -166 -46 -23 -19 -24 -24 -24 -138 0
-91 3 -120 15 -130 68 -57 402 -66 512 -13 l33 15 0 128 c0 145 1 144 -82 166
-54 14 -242 26 -288 18z"/>
<path d="M9110 3870 c0 -90 3 -109 18 -123 63 -57 409 -64 515 -11 27 14 27
15 27 123 l0 109 -52 -20 c-40 -16 -84 -22 -183 -25 -140 -6 -226 5 -287 36
l-38 18 0 -107z"/>
<path d="M7407 3667 l-167 -102 2 -500 3 -500 312 -3 313 -2 172 86 c95 48
176 92 180 98 9 13 11 987 2 1010 -5 14 -43 16 -328 15 l-321 -1 -168 -101z
m712 59 c-2 -2 -64 -38 -138 -80 l-133 -76 -257 2 -256 3 125 77 125 76 269 1
c148 1 267 -1 265 -3z m67 -490 l-1 -475 -152 -75 -153 -76 0 468 0 467 148
82 c81 46 149 83 153 83 3 0 5 -213 5 -474z m-346 -171 l0 -465 -280 0 -280 0
0 465 0 465 280 0 280 0 0 -465z"/>
<path d="M7386 3022 c-2 -4 -1 -13 3 -20 6 -9 49 -12 167 -10 133 3 159 5 159
18 0 13 -26 15 -162 18 -89 1 -164 -1 -167 -6z"/>
<path d="M7386 2891 c-16 -25 27 -31 175 -29 137 3 154 5 157 21 3 16 -10 17
-162 17 -91 0 -167 -4 -170 -9z"/>
<path d="M7386 2761 c-16 -25 27 -31 175 -29 137 3 154 5 157 21 3 16 -10 17
-162 17 -91 0 -167 -4 -170 -9z"/>
<path d="M9110 3552 c0 -124 4 -134 68 -152 70 -20 197 -32 277 -25 83 6 181
29 203 47 8 7 12 45 12 120 0 90 -2 108 -13 100 -31 -26 -134 -42 -262 -42
-140 0 -233 16 -265 45 -20 18 -20 17 -20 -93z"/>
<path d="M8472 3187 c-9 -11 -7 -18 11 -34 20 -19 40 -22 207 -28 181 -7 186
-7 205 15 15 16 17 25 8 38 -9 15 -35 17 -215 20 -163 2 -208 0 -216 -11z"/>
<path d="M5920 3112 l-21 -17 24 -23 23 -22 489 2 c446 3 489 4 498 20 9 13 7
22 -7 37 -19 21 -27 21 -501 21 -446 0 -484 -1 -505 -18z"/>
<path d="M9219 3027 c-31 -7 -68 -21 -83 -30 -26 -17 -26 -18 -26 -142 0 -118
1 -125 23 -137 101 -57 389 -63 497 -10 l35 17 0 135 0 134 -50 20 c-64 24
-310 32 -396 13z"/>
<path d="M9110 2514 l0 -115 46 -21 c72 -31 224 -45 341 -30 54 7 113 20 133
30 l35 17 3 112 3 111 -53 -20 c-41 -17 -83 -22 -186 -26 -145 -5 -236 7 -289
38 l-33 19 0 -115z"/>
<path d="M5916 2332 c-3 -5 0 -24 6 -43 9 -28 38 -53 167 -146 86 -62 318
-229 516 -373 345 -249 362 -260 398 -256 21 2 41 6 43 9 13 13 -29 48 -249
206 -725 523 -849 611 -862 611 -8 0 -16 -4 -19 -8z"/>
<path d="M9110 2190 c0 -125 4 -132 97 -157 84 -23 298 -23 378 1 33 10 66 23
73 28 8 7 12 44 12 118 l0 107 -57 -20 c-117 -40 -378 -33 -467 13 l-36 18 0
-108z"/>
<path d="M7415 1967 l-170 -103 0 -499 0 -500 305 -6 305 -7 178 87 c99 47
183 94 188 103 14 27 12 1001 -3 1016 -9 9 -94 12 -323 12 l-311 0 -169 -103z
m705 59 c0 -2 -60 -38 -134 -80 l-134 -76 -258 2 -257 3 129 77 129 77 263 1
c144 0 262 -2 262 -4z m66 -492 l-1 -476 -145 -74 c-80 -40 -148 -73 -153 -73
-4 -1 -6 209 -5 465 l3 466 145 83 c80 46 147 84 151 84 3 1 5 -213 5 -475z
m-346 -176 l0 -471 -202 6 c-112 4 -238 7 -280 7 l-78 0 0 465 0 465 280 0
280 0 0 -472z"/>
<path d="M7392 1317 c-7 -8 -9 -17 -5 -20 3 -4 80 -7 170 -7 151 0 164 1 161
18 -3 15 -20 17 -159 20 -122 2 -159 0 -167 -11z"/>
<path d="M7386 1185 c-3 -9 0 -18 7 -21 7 -2 82 -3 167 -2 130 3 155 5 155 18
0 23 -320 28 -329 5z"/>
<path d="M7390 1050 c0 -20 4 -20 163 -18 136 3 162 5 162 18 0 13 -26 15
-162 18 -159 2 -163 2 -163 -18z"/>
<path d="M8472 2033 c-7 -12 -3 -22 18 -40 27 -22 34 -23 212 -23 171 0 184 1
195 20 33 51 -3 60 -244 60 -150 0 -173 -2 -181 -17z"/>
<path d="M9280 1860 l0 -70 35 0 c44 0 75 29 75 70 0 41 -31 70 -75 70 l-35 0
0 -70z m90 28 c13 -25 13 -31 0 -55 -11 -20 -25 -29 -48 -31 l-32 -3 0 61 0
61 32 -3 c23 -2 37 -11 48 -30z"/>
<path d="M9420 1860 l0 -70 40 0 c45 0 68 26 51 58 -6 10 -7 29 -4 41 7 28
-10 41 -54 41 l-33 0 0 -70z m75 35 c0 -15 -8 -21 -32 -23 -30 -3 -33 -1 -33
23 0 24 3 26 33 23 24 -2 32 -8 32 -23z m0 -65 c0 -21 -5 -26 -32 -28 -31 -3
-33 -1 -33 28 0 29 2 31 33 28 27 -2 32 -7 32 -28z"/>
<path d="M7325 717 c-8 -20 -22 -53 -29 -72 -8 -19 -11 -35 -7 -35 5 0 11 9
14 20 8 29 73 29 82 -1 4 -11 9 -19 11 -16 5 5 -36 118 -47 131 -5 5 -15 -7
-24 -27z m45 -53 c0 -2 -11 -4 -25 -4 -28 0 -30 8 -13 45 l12 26 13 -32 c7
-17 13 -33 13 -35z"/>
<path d="M7712 741 c-25 -15 -10 -53 25 -65 47 -16 58 -30 38 -50 -18 -17 -54
-13 -67 8 -4 6 -10 8 -13 4 -4 -4 5 -14 19 -23 32 -21 72 -13 81 16 9 27 -9
46 -51 54 -29 5 -35 10 -32 28 3 25 41 35 64 17 8 -8 14 -8 14 -2 0 20 -53 29
-78 13z"/>
<path d="M7420 639 c0 -39 4 -69 10 -69 6 0 10 9 10 21 0 15 4 19 16 15 8 -3
24 -1 35 5 16 8 19 19 17 52 -3 42 -3 42 -45 43 l-43 2 0 -69z m78 25 c3 -34
-17 -58 -42 -48 -10 4 -16 18 -16 38 0 39 7 48 35 44 14 -2 21 -12 23 -34z"/>
<path d="M7541 635 c1 -38 4 -60 6 -47 4 18 9 21 24 17 25 -8 59 20 59 47 0
39 -19 59 -56 56 l-34 -2 1 -71z m69 46 c14 -27 13 -37 -6 -55 -22 -23 -54 -4
-54 33 0 15 3 31 7 34 13 14 43 7 53 -12z"/>
<path d="M7832 698 c-25 -25 -5 -98 28 -98 17 0 40 13 40 22 0 6 -6 6 -14 -1
-11 -9 -20 -10 -35 -1 -33 17 -25 30 19 30 32 0 40 4 40 18 0 24 -19 42 -45
42 -12 0 -26 -5 -33 -12z m61 -12 c8 -19 -1 -26 -35 -26 -30 0 -35 9 -16 28
16 16 45 15 51 -2z"/>
<path d="M7942 655 c1 -48 2 -48 5 -9 3 31 10 44 26 52 21 10 21 11 -5 9 -27
-1 -28 -3 -26 -52z"/>
<path d="M8003 700 c10 -40 32 -90 39 -90 10 0 51 91 44 97 -2 3 -13 -15 -24
-39 l-19 -43 -21 45 c-12 25 -21 38 -19 30z"/>
<path d="M8109 686 c-15 -31 -4 -73 20 -81 22 -7 51 3 51 17 0 6 -6 6 -14 -1
-11 -9 -20 -10 -35 -1 -33 17 -25 30 19 30 32 0 40 4 40 18 0 45 -63 59 -81
18z m61 10 c0 -2 3 -11 6 -20 5 -12 -1 -16 -23 -16 -36 0 -46 9 -32 27 10 12
49 19 49 9z"/>
<path d="M8211 655 l1 -50 8 39 c4 22 15 45 24 52 15 11 14 12 -8 10 -24 -1
-26 -4 -25 -51z"/>
<path d="M8287 704 c-17 -18 -6 -43 23 -49 17 -4 30 -13 30 -20 0 -21 -17 -27
-40 -15 -11 6 -20 7 -20 1 0 -9 23 -21 40 -21 5 0 16 7 25 16 19 19 7 39 -30
48 -33 8 -33 36 -1 36 13 0 27 -5 29 -10 3 -6 4 -5 3 2 -3 14 -48 23 -59 12z"/>
<path d="M635 5720 c-73 -18 -129 -42 -195 -85 -163 -106 -254 -275 -254 -470
0 -160 54 -288 168 -400 116 -116 235 -165 396 -165 156 0 275 48 391 158 82
77 140 181 163 294 20 95 20 133 1 223 -42 198 -186 360 -377 426 -71 24 -227
34 -293 19z m248 -85 c213 -64 357 -255 357 -471 0 -296 -270 -530 -559 -485
-140 21 -260 97 -335 210 -55 83 -76 145 -83 241 -16 229 126 434 352 506 55
17 209 17 268 -1z"/>
<path d="M699 5459 c-93 -14 -177 -75 -224 -161 -23 -42 -30 -68 -33 -134 -4
-72 -1 -88 23 -143 32 -70 94 -132 163 -164 71 -32 180 -30 253 4 70 33 127
89 159 154 34 71 34 188 1 262 -57 128 -201 205 -342 182z m86 -45 c15 -15 55
-87 55 -99 0 -3 -38 -5 -85 -5 -53 0 -85 4 -85 10 0 15 29 71 48 93 19 21 46
22 67 1z m-145 -57 c-21 -46 -22 -47 -67 -47 l-47 0 30 31 c26 27 95 71 102
65 1 -2 -7 -24 -18 -49z m233 42 c34 -18 97 -70 97 -80 0 -5 -19 -9 -43 -9
-42 0 -43 1 -64 50 -23 54 -23 56 10 39z m-267 -145 c-3 -9 -6 -31 -6 -50 l0
-34 -60 0 c-66 0 -71 6 -49 69 11 30 13 31 66 31 46 0 54 -3 49 -16z m247 9
c3 -5 8 -27 12 -50 l7 -43 -116 0 -116 0 0 28 c0 71 3 72 111 72 54 0 100 -3
102 -7z m155 -10 c6 -10 13 -33 17 -50 l7 -33 -60 0 c-65 0 -72 7 -72 73 0 26
2 27 50 27 37 0 52 -4 58 -17z m-408 -135 c0 -7 3 -30 6 -50 l7 -38 -56 0
c-53 0 -55 1 -66 31 -22 63 -17 69 49 69 41 0 60 -4 60 -12z m263 5 c2 -5 0
-27 -5 -50 l-9 -43 -98 0 -98 0 -7 38 c-10 65 -15 62 103 62 61 0 112 -3 114
-7z m167 1 c0 -3 -5 -25 -11 -50 l-11 -44 -59 0 -58 0 5 38 c9 62 9 62 74 62
33 0 60 -3 60 -6z m-383 -184 c22 -52 17 -60 -23 -37 -28 16 -66 48 -83 70
-12 16 -10 17 36 17 l49 0 21 -50z m183 40 c0 -6 -11 -33 -25 -60 -20 -40 -30
-50 -50 -50 -26 0 -44 21 -70 83 l-15 37 80 0 c48 0 80 -4 80 -10z m140 1 c0
-20 -115 -100 -126 -88 -2 2 5 25 16 50 20 46 22 47 65 47 25 0 45 -4 45 -9z"/>
<path d="M1494 5034 c-9 -4 -9 -14 -2 -38 12 -37 -90 15 1063 -552 204 -100
548 -269 766 -376 324 -160 402 -194 427 -190 23 3 32 10 32 23 0 31 144 -43
-1358 695 -497 244 -906 444 -910 443 -4 0 -12 -3 -18 -5z"/>
<path d="M570 4334 c-206 -54 -371 -228 -415 -439 -18 -88 -18 -132 0 -220 24
-114 75 -207 158 -290 307 -306 817 -171 943 251 26 85 24 220 -4 309 -60 193
-213 340 -407 390 -74 19 -202 18 -275 -1z m235 -69 c96 -21 166 -57 239 -126
208 -194 208 -514 0 -708 -76 -72 -146 -107 -253 -128 -74 -15 -88 -15 -163 0
-111 22 -194 66 -266 141 -195 203 -189 505 14 695 72 68 143 106 235 125 83
19 110 19 194 1z"/>
<path d="M626 4074 c-143 -45 -226 -158 -226 -304 1 -149 87 -262 234 -305
140 -41 291 29 363 168 39 74 39 188 2 268 -67 141 -232 218 -373 173z m144
-76 c16 -29 30 -56 30 -60 0 -5 -38 -8 -85 -8 -53 0 -85 4 -85 10 0 6 7 25 16
43 44 86 80 90 124 15z m-150 28 c0 -2 -9 -24 -20 -50 -21 -45 -22 -46 -67
-46 l-46 0 19 21 c35 40 114 92 114 75z m230 -17 c41 -25 80 -59 80 -71 0 -4
-19 -8 -43 -8 -42 0 -43 1 -64 50 -12 28 -18 50 -15 50 4 0 23 -10 42 -21z
m-284 -141 c-3 -13 -6 -35 -6 -50 0 -27 -1 -28 -60 -28 -66 0 -71 6 -49 69 11
30 13 31 66 31 52 0 55 -1 49 -22z m249 10 c2 -7 6 -30 10 -50 l6 -38 -116 0
-115 0 0 28 c0 71 2 72 111 72 71 0 101 -4 104 -12z m153 -5 c6 -10 13 -33 17
-50 l7 -33 -60 0 c-65 0 -72 7 -72 73 0 26 2 27 50 27 37 0 52 -4 58 -17z
m-408 -135 c0 -7 3 -30 6 -50 l7 -38 -56 0 c-53 0 -55 1 -66 31 -22 63 -17 69
49 69 41 0 60 -4 60 -12z m265 -13 c-3 -14 -7 -36 -10 -50 -5 -25 -7 -25 -100
-25 -51 0 -96 4 -99 8 -3 5 -8 28 -12 50 l-7 42 117 0 116 0 -5 -25z m160 -7
c-14 -62 -21 -68 -80 -68 l-54 0 5 38 c9 62 9 62 74 62 l62 0 -7 -32z m-378
-158 c15 -36 18 -50 9 -50 -16 0 -84 49 -110 79 l-19 21 49 0 50 0 21 -50z
m183 40 c0 -6 -11 -33 -25 -60 -20 -40 -30 -50 -50 -50 -26 0 -44 21 -70 83
l-15 37 80 0 c48 0 80 -4 80 -10z m140 1 c0 -20 -115 -100 -126 -88 -3 2 4 25
15 51 20 45 21 46 66 46 25 0 45 -4 45 -9z"/>
<path d="M1470 3820 c-13 -8 -12 -13 6 -37 20 -26 50 -35 400 -126 208 -53
552 -142 764 -197 212 -54 502 -129 645 -165 143 -37 299 -77 347 -89 110 -29
128 -21 73 32 -38 37 -50 42 -260 96 -395 101 -1037 266 -1190 306 -408 106
-744 190 -756 190 -8 0 -21 -5 -29 -10z"/>
<path d="M563 2945 c-144 -39 -297 -165 -360 -295 -108 -224 -66 -476 108
-652 304 -305 822 -170 945 247 21 73 24 208 5 285 -48 196 -214 365 -408 415
-71 19 -221 18 -290 0z m256 -70 c269 -64 435 -335 366 -600 -44 -167 -182
-307 -349 -351 -65 -18 -187 -18 -252 0 -264 70 -423 353 -343 612 28 90 59
143 125 208 122 121 290 169 453 131z"/>
<path d="M625 2687 c-68 -23 -101 -44 -148 -97 -61 -67 -81 -129 -75 -229 7
-117 67 -209 170 -262 62 -32 179 -38 249 -13 69 25 141 91 176 162 38 77 39
191 3 267 -31 64 -98 130 -158 157 -58 25 -163 32 -217 15z m147 -82 c15 -27
28 -53 28 -57 0 -5 -38 -8 -85 -8 -52 0 -85 4 -85 10 0 6 11 33 25 61 24 46
29 50 58 47 27 -3 36 -11 59 -53z m-152 31 c0 -2 -9 -24 -20 -50 -20 -45 -22
-46 -66 -46 -42 0 -44 1 -34 21 15 28 120 94 120 75z m230 -13 c35 -23 80 -65
80 -75 0 -4 -19 -8 -42 -8 -42 0 -44 2 -65 50 -23 54 -16 63 27 33z m-284
-145 c-3 -13 -6 -35 -6 -50 0 -27 -1 -28 -60 -28 -66 0 -71 6 -49 69 11 30 13
31 66 31 52 0 55 -1 49 -22z m254 3 c0 -10 3 -33 6 -50 l7 -31 -117 0 -116 0
0 28 c0 71 2 72 116 72 95 0 104 -2 104 -19z m159 -25 c6 -25 11 -47 11 -50 0
-3 -26 -6 -59 -6 -58 0 -59 1 -65 31 -13 66 -11 69 48 69 l54 0 11 -44z m-419
-108 c0 -7 3 -30 6 -50 l7 -38 -56 0 c-53 0 -55 1 -66 31 -22 63 -17 69 49 69
41 0 60 -4 60 -12z m259 -30 c-4 -24 -8 -46 -9 -50 0 -5 -42 -8 -94 -8 -52 0
-97 3 -99 8 -3 4 -8 26 -12 50 l-7 42 115 0 114 0 -8 -42z m166 10 c-14 -62
-21 -68 -80 -68 l-54 0 5 38 c9 62 9 62 74 62 l62 0 -7 -32z m-377 -158 c12
-27 18 -50 13 -50 -13 0 -95 56 -115 78 l-19 22 50 0 50 0 21 -50z m177 28
c-26 -86 -84 -115 -117 -60 -10 16 -22 41 -27 55 l-11 27 81 0 c79 0 80 0 74
-22z m138 7 c-6 -16 -75 -67 -106 -78 -15 -6 -17 -3 -11 16 20 64 33 77 79 77
36 0 43 -3 38 -15z"/>
<path d="M2575 2474 c-870 -146 -1043 -177 -1059 -193 -19 -20 -19 -20 17 -37
35 -17 46 -15 1081 157 902 150 1047 176 1052 192 5 15 -30 58 -46 56 -3 -1
-473 -79 -1045 -175z"/>
<path d="M2955 1721 c-379 -163 -854 -368 -1055 -455 -200 -86 -365 -158 -366
-159 -1 -1 -5 -14 -9 -29 -15 -59 19 -49 446 135 1591 684 1721 741 1732 765
12 26 -2 42 -38 41 -11 0 -330 -134 -710 -298z"/>
<path d="M630 1550 c-175 -27 -345 -150 -420 -305 -166 -339 26 -732 395 -810
88 -18 132 -18 220 0 114 24 207 75 290 158 341 342 124 923 -360 960 -38 3
-95 1 -125 -3z m205 -85 c90 -24 169 -71 234 -141 72 -76 107 -146 128 -253
15 -74 15 -88 0 -163 -21 -106 -65 -192 -134 -261 -195 -195 -489 -197 -689
-5 -75 72 -119 155 -141 266 -15 75 -15 89 0 163 21 107 56 177 127 253 123
130 306 185 475 141z"/>
<path d="M604 1270 c-71 -28 -137 -89 -171 -158 -23 -48 -28 -70 -28 -137 0
-68 4 -89 28 -137 57 -116 173 -184 303 -176 87 6 147 33 209 95 62 64 88 135
83 233 -6 122 -69 220 -176 271 -68 32 -180 36 -248 9z m170 -64 c42 -72 39
-76 -60 -76 -84 0 -85 0 -79 23 4 12 18 39 31 60 19 29 31 37 53 37 24 0 34
-8 55 -44z m-165 -16 c-10 -21 -19 -44 -19 -50 0 -5 -20 -10 -45 -10 -25 0
-45 4 -45 8 0 10 45 52 80 75 41 28 50 21 29 -23z m280 0 c28 -22 51 -45 51
-50 0 -6 -20 -10 -44 -10 -43 0 -44 1 -64 50 -26 63 -13 65 57 10z m-319 -122
c0 -58 -8 -66 -71 -70 -32 -1 -59 1 -59 6 0 5 5 26 12 47 11 39 11 39 65 39
48 0 53 -2 53 -22z m254 0 c3 -13 6 -33 6 -45 0 -23 -2 -23 -116 -23 -116 0
-116 0 -110 23 3 12 6 32 6 45 0 21 3 22 104 22 99 0 104 -1 110 -22z m156 -4
c6 -14 10 -35 10 -47 0 -21 -4 -22 -60 -19 -58 4 -60 5 -60 32 0 16 -3 35 -6
44 -5 13 3 16 50 16 51 0 57 -2 66 -26z m-414 -118 c1 0 4 -20 7 -43 l5 -43
-57 0 -58 0 -11 39 c-19 62 -19 63 51 55 34 -4 63 -7 63 -8z m424 -10 c0 -14
-4 -36 -10 -50 -9 -24 -15 -26 -66 -26 l-56 0 6 31 c3 17 6 37 6 45 0 8 16 14
43 17 23 2 50 4 60 5 12 1 17 -5 17 -22z m-164 -17 c-3 -17 -6 -38 -6 -45 0
-11 -22 -14 -100 -14 l-100 0 -5 28 c-15 68 -24 62 102 62 l116 0 -7 -31z
m-251 -105 c12 -3 28 -23 38 -47 23 -57 22 -60 -15 -41 -35 17 -98 73 -98 86
0 9 45 10 75 2z m359 -3 c8 -12 -68 -77 -105 -90 -16 -5 -29 -8 -29 -5 0 11
44 90 54 96 16 11 74 10 80 -1z m-144 -23 c-42 -85 -45 -88 -72 -88 -23 0 -32
8 -53 50 -14 27 -25 52 -25 55 0 3 36 5 80 5 80 0 81 0 70 -22z"/>
<path d="M472 224 c-2 -50 2 -64 18 -79 16 -15 26 -17 48 -9 26 9 27 13 28 79
l1 70 -4 -62 c-3 -49 -8 -65 -23 -73 -40 -22 -56 1 -63 90 -3 38 -4 35 -5 -16z"/>
<path d="M607 233 c-16 -16 -4 -35 29 -49 33 -14 35 -17 22 -31 -13 -12 -20
-13 -39 -2 -22 11 -23 11 -10 -4 17 -21 45 -22 61 -2 18 22 6 41 -30 48 -38 8
-36 32 3 32 14 -1 23 3 21 7 -6 10 -48 11 -57 1z"/>
<path d="M710 221 c-15 -30 -12 -56 10 -76 17 -15 24 -16 46 -6 15 6 24 14 21
18 -4 3 -13 1 -20 -6 -17 -13 -43 -6 -51 15 -4 11 4 14 34 14 32 0 40 4 40 18
0 41 -60 59 -80 23z m60 5 c0 -2 3 -11 6 -20 5 -12 -1 -16 -23 -16 -36 0 -46
9 -32 27 10 12 49 19 49 9z"/>
<path d="M810 188 c0 -27 5 -48 10 -48 6 0 10 16 10 36 0 23 6 41 17 49 16 12
15 13 -10 12 -25 -2 -27 -5 -27 -49z"/>
<path d="M887 233 c-17 -17 -5 -42 23 -48 17 -4 30 -13 30 -20 0 -21 -17 -27
-40 -15 -12 6 -20 7 -20 1 0 -16 38 -23 60 -11 28 15 21 32 -18 49 -42 19 -43
45 -3 39 17 -2 28 -1 25 4 -6 10 -48 11 -57 1z"/>
</g>
</svg>
