<?xml version="1.0" encoding="iso-8859-1"?>
<!-- Generator: Adobe Illustrator 18.0.0, SVG Export Plug-In . SVG Version: 6.00 Build 0)  -->
<!DOCTYPE svg PUBLIC "-//W3C//DTD SVG 1.1//EN" "http://www.w3.org/Graphics/SVG/1.1/DTD/svg11.dtd">
<svg version="1.1" id="Capa_1" xmlns="http://www.w3.org/2000/svg" xmlns:xlink="http://www.w3.org/1999/xlink" x="0px" y="0px"
	 viewBox="0 0 431.891 431.891" style="enable-background:new 0 0 431.891 431.891;" xml:space="preserve">
<g>
	<path style="fill:#EF7954;" d="M273.511,232.681v80.34h-115.12v-80.34c6.6-1.04,13.23-1.9,19.87-2.57
		c25.06-2.57,50.31-2.57,75.37,0C260.271,230.781,266.901,231.641,273.511,232.681z"/>
	<path style="fill:#738B93;" d="M303.155,336.274v-97.678c-9.818-2.377-19.704-4.352-29.644-5.915v80.34h-115.12v-80.34
		c-9.941,1.563-19.834,3.538-29.654,5.915v97.678h-21.816v95.617h218.05v-95.617H303.155z"/>
	<path style="fill:#738B93;" d="M253.631,230.111v4.13c0,20.78-16.9,37.69-37.68,37.69s-37.69-16.91-37.69-37.69v-4.13
		C203.321,227.541,228.571,227.541,253.631,230.111z"/>
	<path style="fill:#F9D8B7;" d="M243.631,203.482v30.76c0,15.29-12.39,27.69-27.68,27.69s-27.69-12.4-27.69-27.69v-30.76H243.631z"
		/>
	<path style="fill:#EDCEB2;" d="M243.631,203.482v24.66c-8.46,3.87-17.85,6.01-27.67,6.01h-0.02c-9.83,0-19.22-2.14-27.68-6.02
		v-24.65H243.631z"/>
	<path style="fill:#F9D8B7;" d="M289.821,106.411l-1.76,12.99l-6,44.44c-4.46,33.1-32.71,57.81-66.1,57.81h-0.02
		c-33.39,0-61.65-24.71-66.11-57.81l-6-44.44l-1.75-12.99H289.821z"/>
	<path style="fill:#EDCEB2;" d="M142.081,106.411l1.75,12.99h24.76l3.9,5.97l7.94,12.16h71.04l7.94-12.16l3.89-5.97h24.76
		l1.76-12.99H142.081z"/>
	<g>
		<path style="fill:#EDA856;" d="M304.286,106.406H127.611c0-8.502,1.205-16.723,3.46-24.496h169.756
			C303.081,89.684,304.286,97.905,304.286,106.406z"/>
		<path style="fill:#EDA856;" d="M238.776,8.1l-5.651,73.811H198.78L193.124,8.1l-0.381-4.973C200.132,1.093,207.913,0,215.95,0
			s15.819,1.093,23.207,3.127L238.776,8.1z"/>
		<polygon style="fill:#EDA856;" points="263.306,106.406 259.409,112.375 251.468,124.531 180.429,124.531 172.488,112.375 
			168.591,106.406 		"/>
		<g>
			<path style="fill:#CC731B;" d="M198.78,81.909h34.346l0,0.001h60.148c0-2.859-0.155-5.685-0.46-8.464
				c-2.972-27.33-20.189-50.382-44.065-61.579c-3.089-1.453-6.291-2.704-9.59-3.738L238.776,8.1l-5.003,65.348h-35.642L193.124,8.1
				l-0.381,0.029c-3.299,1.034-6.501,2.286-9.59,3.738c-23.881,11.197-41.097,34.249-44.069,61.579
				c-0.306,2.779-0.46,5.605-0.46,8.464h60.156L198.78,81.909z"/>
			<polygon style="fill:#CC731B;" points="172.488,112.375 259.409,112.375 263.306,106.406 168.591,106.406 			"/>
		</g>
		<g>
			<path style="fill:#EDA856;" d="M183.154,11.867l5.908,61.579h-49.978C142.056,46.116,159.273,23.064,183.154,11.867z"/>
			<path style="fill:#EDA856;" d="M292.812,73.446h-49.974l5.908-61.579C272.624,23.064,289.84,46.116,292.812,73.446z"/>
		</g>
	</g>
	<polyline style="fill:#EF7954;" points="128.736,238.596 80.293,256.042 53.549,336.274 128.736,336.274 	"/>
	<polyline style="fill:#EF7954;" points="303.155,238.596 351.598,256.042 378.343,336.274 303.155,336.274 	"/>
	<rect x="66.991" y="336.274" style="fill:#F9D8B7;" width="61.746" height="95.617"/>
	<rect x="303.155" y="336.274" style="fill:#F9D8B7;" width="61.746" height="95.617"/>
	<rect x="158.391" y="343.111" style="fill:#496A72;" width="115.12" height="18.91"/>
	<rect x="164.911" y="362.021" style="fill:#496A72;" width="102.08" height="58.09"/>
	<rect x="164.911" y="362.021" style="fill:#2D4C51;" width="102.08" height="8.5"/>
	<rect x="126.064" y="273.111" style="fill:#496A72;" width="35" height="27"/>
	<rect x="133.064" y="280.111" style="fill:#738B93;" width="21" height="13"/>
	<rect x="270.838" y="273.111" style="fill:#496A72;" width="35" height="27"/>
	<rect x="277.838" y="280.111" style="fill:#738B93;" width="21" height="13"/>
	<rect x="66.991" y="336.274" style="fill:#EDCEB2;" width="61.746" height="15.837"/>
	<rect x="303.155" y="336.274" style="fill:#EDCEB2;" width="61.746" height="15.837"/>
</g>
<g>
</g>
<g>
</g>
<g>
</g>
<g>
</g>
<g>
</g>
<g>
</g>
<g>
</g>
<g>
</g>
<g>
</g>
<g>
</g>
<g>
</g>
<g>
</g>
<g>
</g>
<g>
</g>
<g>
</g>
</svg>
