<?xml version="1.0" encoding="utf-8"?>
<!-- Generator: Adobe Illustrator 17.0.0, SVG Export Plug-In . SVG Version: 6.00 Build 0)  -->
<!DOCTYPE svg PUBLIC "-//W3C//DTD SVG 1.1//EN" "http://www.w3.org/Graphics/SVG/1.1/DTD/svg11.dtd">
<svg version="1.1" id="Ebene_1" xmlns="http://www.w3.org/2000/svg" xmlns:xlink="http://www.w3.org/1999/xlink" x="0px" y="0px"
	 width="416.853px" height="77.397px" viewBox="69.625 4.701 416.853 77.397" enable-background="new 69.625 4.701 416.853 77.397"
	 xml:space="preserve">
<path fill="#E20074" d="M69.625,43.95V33.378h10.571V43.95H69.625z"/>
<path fill="#E20074" d="M107.709,43.95V33.378h10.572V43.95H107.709z"/>
<path fill="#E20074" d="M140.382,43.95V33.378h10.572V43.95H140.382z"/>
<path fill="#E20074" d="M173.055,43.95V33.378h10.571V43.95H173.055z"/>
<path fill="#E20074" d="M224.874,25.793c-1.082-5.35-2.485-9.296-4.21-11.84c-2.748-4.063-6.256-6.095-10.524-6.095
	c-2.602,0-4.794,0.789-6.578,2.368c-2.163,1.93-3.245,4.473-3.245,7.63c0,3.333,1.169,5.964,3.508,7.893
	c1.433,1.199,4.195,2.5,8.288,3.903c5.993,2.076,10.013,3.874,12.059,5.394c4.356,3.216,6.534,7.689,6.534,13.419
	c0,5.496-1.783,10.086-5.35,13.77c-3.274,3.42-7.323,5.13-12.147,5.13c-2.573,0-4.955-0.468-7.148-1.403
	c-0.936-0.38-2.47-1.242-4.604-2.587c-0.702-0.438-1.389-0.657-2.061-0.657c-0.789,0-1.505,0.408-2.148,1.228
	c-0.292,0.409-0.687,1.067-1.184,1.974h-2.763V44.211h2.851c1.052,5.496,2.5,9.691,4.341,12.586
	c3.099,4.882,7.177,7.322,12.234,7.322c2.953,0,5.408-0.861,7.367-2.587c2.485-2.222,3.727-5.276,3.727-9.165
	c0-4.619-1.929-8.039-5.788-10.261c-1.228-0.702-4.604-1.988-10.13-3.859c-3.917-1.315-6.987-2.953-9.209-4.911
	c-3.274-2.865-4.911-6.812-4.911-11.84c0-5.438,1.783-9.735,5.35-12.893c2.894-2.602,6.417-3.902,10.568-3.902
	c2.251,0,4.473,0.438,6.666,1.315c0.906,0.38,2.324,1.155,4.253,2.324c0.614,0.351,1.169,0.526,1.666,0.526
	c0.907,0,1.813-0.936,2.72-2.806h2.455v19.733C227.461,25.793,224.874,25.793,224.874,25.793z"/>
<path fill="#E20074" d="M233.118,24.609h18.725v2.763h-1.623c-2.426,0-3.64,0.658-3.64,1.973c0,0.526,0.205,1.331,0.614,2.412
	l8.989,23.504l7.806-21.75c0.556-1.52,0.833-2.704,0.833-3.552c0-1.725-1.315-2.587-3.946-2.587h-1.974v-2.763h14.734v2.763h-0.965
	c-0.936,0-1.71,0.314-2.324,0.943s-1.213,1.703-1.798,3.223L253.685,71.53c-1.403,3.713-2.953,6.388-4.648,8.025
	c-1.754,1.695-3.918,2.543-6.49,2.543c-2.192,0-4.034-0.629-5.525-1.886c-1.813-1.549-2.719-3.479-2.719-5.788
	c0-1.433,0.409-2.631,1.228-3.596c0.877-1.082,2.076-1.623,3.597-1.623c1.666,0,2.938,0.614,3.814,1.842
	c0.526,0.731,0.789,1.564,0.789,2.5c0,1.345-0.481,2.47-1.446,3.376c-0.585,0.556-1.359,0.906-2.324,1.053
	c0.672,0.76,1.593,1.141,2.763,1.141c1.725,0,3.23-0.688,4.517-2.062c1.169-1.257,2.47-3.902,3.902-7.938l0.965-2.806
	l-12.322-33.152c-0.965-2.514-1.783-4.078-2.455-4.692c-0.761-0.731-1.915-1.096-3.465-1.096h-0.745v-2.762
	C233.121,24.609,233.118,24.609,233.118,24.609z"/>
<path fill="#E20074" d="M303.148,24.609v13.068h-2.719c-1.462-7.572-4.955-11.357-10.48-11.357c-1.988,0-3.596,0.599-4.823,1.798
	c-1.287,1.228-1.93,2.733-1.93,4.517c0,2.046,0.892,3.669,2.675,4.868c0.877,0.584,2.471,1.257,4.779,2.017
	c4.971,1.579,8.303,2.997,9.999,4.253c3.273,2.485,4.911,5.745,4.911,9.778c0,4.094-1.418,7.441-4.254,10.043
	c-2.397,2.163-5.481,3.244-9.253,3.244c-2.134,0-4.107-0.38-5.92-1.14c-1.022-0.409-2.382-1.14-4.078-2.192
	c-0.438-0.264-0.789-0.395-1.052-0.395c-0.585,0-1.155,0.936-1.711,2.807h-2.543V50.701h2.543c1.023,3.713,2.135,6.432,3.333,8.156
	c2.368,3.391,5.511,5.087,9.428,5.087c2.251,0,4.035-0.774,5.351-2.324c1.257-1.433,1.886-3.099,1.886-4.999
	c0-2.748-1.229-4.883-3.684-6.402c-1.315-0.789-3.962-1.827-7.938-3.113c-3.566-1.17-6.205-2.733-7.915-4.692
	c-1.71-1.958-2.565-4.414-2.565-7.367c0-3.479,1.228-6.285,3.684-8.419c2.222-1.929,5.028-2.894,8.419-2.894
	c3.012,0,5.848,0.804,8.508,2.412c0.526,0.321,0.965,0.482,1.315,0.482c0.585,0,1.023-0.672,1.315-2.017h2.719V24.609z"/>
<path fill="#E20074" d="M320.82,27.679v24.864c0,3.187,0.22,5.539,0.658,7.061c0.672,2.309,2.09,3.464,4.254,3.464
	c1.987,0,3.405-1.009,4.253-3.026c0.818-1.93,1.229-4.282,1.229-7.06v-1.228h2.981v1.666c0,8.945-3.537,13.418-10.612,13.418
	c-3.508,0-6.109-1.008-7.806-3.025c-1.257-1.52-2.017-3.348-2.28-5.481c-0.175-1.608-0.263-3.537-0.263-5.788V27.679h-6.49v-2.543
	c4.063-0.906,6.885-2.543,8.464-4.911c1.637-2.602,2.646-6.33,3.025-11.182h2.587V24.61h12.06v3.07L320.82,27.679L320.82,27.679
	L320.82,27.679z"/>
<path fill="#E20074" d="M369.847,44.957H345.29c0.029,5.788,0.628,10.07,1.798,12.848c1.637,3.918,4.443,5.877,8.419,5.877
	c3.099,0,5.687-1.229,7.762-3.684c1.141-1.346,2.28-3.201,3.421-5.57l2.675,1.404c-3.771,7.571-8.858,11.357-15.261,11.357
	c-4.706,0-8.565-1.608-11.576-4.824c-3.742-4.005-5.613-9.793-5.613-17.365c0-6.958,1.871-12.526,5.613-16.707
	c2.952-3.303,6.504-4.955,10.655-4.955c6.169,0,10.803,3.099,13.901,9.296C368.75,35.938,369.671,40.045,369.847,44.957z
	 M361.559,41.799c0-3.654-0.395-6.666-1.184-9.034c-1.433-4.18-3.684-6.271-6.754-6.271c-3.449,0-5.891,2.573-7.323,7.718
	c-0.584,2.076-0.892,4.604-0.921,7.586h16.182L361.559,41.799L361.559,41.799z"/>
<path fill="#E20074" d="M421.721,65.918V40.659c0-5.204-0.363-8.566-1.095-10.086c-0.993-1.988-2.543-2.982-4.647-2.982
	c-2.515,0-4.549,1.418-6.098,4.253c-0.848,1.55-1.403,3.245-1.667,5.087c-0.204,1.345-0.305,3.888-0.305,7.631v11.313
	c0.029,3.362,0.393,5.424,1.095,6.184c0.584,0.701,1.741,1.066,3.466,1.096h1.27v2.764h-13.418V42.063
	c0-4.093-0.088-6.753-0.264-7.981c-0.613-4.356-2.496-6.534-5.653-6.534c-2.543,0-4.548,1.447-6.01,4.341
	c-0.73,1.403-1.228,2.88-1.491,4.429c-0.292,1.579-0.438,4.327-0.438,8.245v11.313c0.029,3.362,0.365,5.424,1.011,6.184
	c0.614,0.701,1.796,1.066,3.55,1.096h1.274v2.764h-19.428v-2.764h1.447c1.666-0.029,2.807-0.395,3.42-1.096
	c0.731-0.73,1.111-2.792,1.141-6.184V34.564c-0.029-3.362-0.409-5.409-1.141-6.139c-0.613-0.702-1.754-1.053-3.42-1.053h-1.009
	v-2.763l12.587-0.614v7.279c0.582-1.462,1.403-2.763,2.455-3.903c2.249-2.426,4.938-3.64,8.069-3.64c3.331,0,6.004,1.213,8.021,3.64
	c0.877,1.053,1.695,2.543,2.455,4.473c2.603-5.408,6.303-8.112,11.097-8.112c1.9,0,3.654,0.417,5.263,1.25
	c1.607,0.833,2.877,1.98,3.813,3.442c1.053,1.637,1.695,3.508,1.93,5.613c0.204,1.695,0.309,3.566,0.309,5.613v16.225
	c0.029,3.362,0.393,5.424,1.095,6.184c0.585,0.701,1.741,1.066,3.466,1.096h1.007v2.764L421.721,65.918L421.721,65.918z"/>
<path fill="#E20074" d="M465.488,24.609v13.068h-2.719c-1.462-7.572-4.957-11.357-10.482-11.357c-1.988,0-3.596,0.599-4.824,1.798
	c-1.286,1.228-1.929,2.733-1.929,4.517c0,2.046,0.894,3.669,2.677,4.868c0.877,0.584,2.468,1.257,4.777,2.017
	c4.97,1.579,8.303,2.997,9.998,4.253c3.274,2.485,4.912,5.745,4.912,9.778c0,4.094-1.416,7.441-4.252,10.043
	c-2.397,2.163-5.483,3.244-9.255,3.244c-2.134,0-4.105-0.38-5.918-1.14c-1.022-0.409-2.384-1.14-4.08-2.192
	c-0.438-0.264-0.789-0.395-1.052-0.395c-0.585,0-1.153,0.936-1.709,2.807h-2.543V50.701h2.543c1.023,3.713,2.135,6.432,3.333,8.156
	c2.368,3.391,5.509,5.087,9.426,5.087c2.251,0,4.034-0.774,5.351-2.324c1.257-1.433,1.888-3.099,1.888-4.999
	c0-2.748-1.229-4.883-3.684-6.402c-1.315-0.789-3.964-1.827-7.939-3.113c-3.566-1.17-6.206-2.733-7.914-4.692
	c-1.713-1.958-2.564-4.414-2.564-7.367c0-3.479,1.228-6.285,3.684-8.419c2.222-1.929,5.028-2.894,8.419-2.894
	c3.012,0,5.848,0.804,8.508,2.412c0.526,0.321,0.965,0.482,1.315,0.482c0.585,0,1.023-0.672,1.315-2.017h2.718V24.609z"/>
<path fill="#E20074" d="M475.907,43.95V33.378h10.571V43.95H475.907z"/>
<path fill="#E20074" d="M98.867,8.999v45.254c0,3.274,0.173,5.292,0.52,6.052c0.6,1.783,2.619,2.704,6.056,2.763h2.271v2.894H81.076
	v-2.894h2.271c2.492,0,4.196-0.453,5.11-1.359c0.632-0.556,1.025-1.389,1.184-2.5c0.188-1.14,0.284-2.792,0.284-4.955V8.999h-1.988
	c-3.122,0-5.93,0.848-8.421,2.543c-3.754,2.572-5.931,7.732-6.53,15.479l-2.839-0.132l0.521-20.786h47.74l0.379,20.786l-2.887,0.132
	c-0.662-4.912-1.766-8.727-3.312-11.445c-1.388-2.427-3.122-4.151-5.204-5.174c-1.861-0.906-4.212-1.374-7.05-1.403
	C100.334,8.999,98.867,8.999,98.867,8.999z"/>
</svg>
