<?xml version="1.0" encoding="utf-8"?>
<svg viewBox="0 0 500 500" xmlns="http://www.w3.org/2000/svg">
  <path d="M -19.531 107.989 Z" style="stroke: black; fill: none;"/>
  <ellipse cx="254.347" cy="251.449" rx="193.695" ry="193.696" style="fill: rgb(237, 237, 237);"/>
  <g id="surface1" transform="matrix(0.460267, 0, 0, 0.460267, 79.453499, 112.719902)">
    <path style="stroke: none; fill-rule: nonzero; fill-opacity: 1; fill: rgb(0, 117, 170);" d="M 553.601562 60.40625 L 550.085938 39.308594 C 548.957031 32.535156 546.320312 26.992188 544.222656 26.992188 C 542.125 26.992188 540.410156 32.609375 540.410156 39.476562 L 540.410156 44.992188 C 540.410156 51.859375 534.792969 57.476562 527.925781 57.476562 L 522.414062 57.476562 C 522.011719 57.476562 521.617188 57.492188 521.226562 57.515625 L 521.226562 72.683594 C 521.617188 72.703125 522.011719 72.71875 522.414062 72.71875 L 543.167969 72.71875 C 550.035156 72.71875 554.730469 67.179688 553.601562 60.40625 "/>
    <path style="stroke: none; fill-rule: nonzero; fill-opacity: 1; fill: rgb(0, 117, 170);" d="M 516.328125 58.453125 C 512.519531 59.765625 509.929688 62.253906 509.929688 65.097656 C 509.929688 67.941406 512.519531 70.433594 516.328125 71.742188 Z "/>
    <path style="stroke: none; fill-rule: nonzero; fill-opacity: 1; fill: rgb(0, 117, 170);" d="M 503.84375 42.546875 L 470.1875 42.546875 C 469.90625 42.546875 469.632812 42.570312 469.359375 42.589844 L 434.808594 42.589844 C 434.402344 42.589844 434.007812 42.628906 433.617188 42.691406 L 433.617188 39.476562 C 433.617188 32.609375 431.902344 26.992188 429.808594 26.992188 C 427.710938 26.992188 425.074219 32.535156 423.945312 39.308594 L 420.429688 60.40625 C 419.300781 67.175781 423.996094 72.71875 430.859375 72.71875 L 451.617188 72.71875 C 453.753906 72.71875 455.773438 72.386719 457.535156 71.800781 C 456.875 75.339844 453.777344 78.019531 450.050781 78.019531 L 420.941406 78.019531 C 416.230469 78.019531 412.648438 73.789062 413.421875 69.144531 L 416.371094 51.464844 C 417.144531 46.816406 413.5625 42.589844 408.855469 42.589844 L 263.992188 42.589844 C 260.90625 42.589844 258.253906 44.425781 257.054688 47.066406 L 229.773438 88.566406 C 229.308594 89.269531 229.367188 90.191406 229.910156 90.835938 L 235.203125 97.085938 C 235.867188 97.867188 237.027344 97.984375 237.828125 97.351562 L 256.371094 82.71875 L 256.371094 171.511719 C 256.371094 175.71875 259.78125 179.132812 263.992188 179.132812 L 305.117188 179.132812 C 309.328125 179.132812 312.738281 175.71875 312.738281 171.511719 L 312.738281 140.632812 C 312.738281 136.421875 316.152344 133.011719 320.359375 133.011719 L 423.027344 133.011719 C 427.234375 133.011719 430.648438 136.421875 430.648438 140.632812 L 430.648438 171.511719 C 430.648438 175.71875 434.058594 179.132812 438.269531 179.132812 L 479.394531 179.132812 C 483.601562 179.132812 487.015625 175.71875 487.015625 171.511719 L 487.015625 138.28125 L 465.171875 138.28125 C 458.308594 138.28125 452.691406 132.660156 452.691406 125.796875 L 452.691406 104.425781 C 452.691406 100.359375 454.667969 96.742188 457.703125 94.460938 L 457.703125 119.964844 C 457.703125 126.832031 463.320312 132.449219 470.1875 132.449219 L 503.84375 132.449219 C 510.710938 132.449219 516.328125 126.832031 516.328125 119.964844 L 516.328125 55.03125 C 516.328125 48.164062 510.710938 42.546875 503.84375 42.546875 "/>
  </g>
  <g id="layer2" style="display:none" transform="matrix(1, 0, 0, 1, 29.526518, 323.886536)">
    <g id="g3910">
      <path id="path3872" d="m 3.7946429,10.710395 156.7857171,0" style="fill:none;stroke:#000000;stroke-width:1px;stroke-linecap:butt;stroke-linejoin:miter;stroke-opacity:1"/>
      <path id="path3872-6" d="m 3.6552959,35.734302 156.7857141,0" style="fill:none;stroke:#000000;stroke-width:1px;stroke-linecap:butt;stroke-linejoin:miter;stroke-opacity:1"/>
      <path id="path3872-6-8" d="m -10.35714,23.222461 156.78571,0" style="fill:none;stroke:#000000;stroke-width:1px;stroke-linecap:butt;stroke-linejoin:miter;stroke-opacity:1"/>
    </g>
  </g>
  <path style="font-size: medium; font-style: normal; font-variant-ligatures: normal; font-variant-caps: normal; font-weight: normal; font-stretch: normal; text-indent: 0px; text-align: start; text-decoration: none; line-height: normal; letter-spacing: normal; word-spacing: normal; text-transform: none; direction: ltr; writing-mode: lr-tb; text-anchor: start; baseline-shift: baseline; color: rgb(0, 0, 0); fill: rgb(0, 153, 0); fill-opacity: 1; stroke: none; stroke-width: 5; marker: none; visibility: visible; display: inline; overflow: visible; font-family: Sans;" d="M 141.323 269.83 L 138.851 274.438 L 119.743 309.172 L 117.271 313.556 L 119.743 317.941 L 138.851 351.55 L 141.437 356.158 L 146.721 356.158 L 185.836 356.158 L 191.458 356.158 L 193.929 351.101 L 208.209 322.325 L 214.615 309.284 L 200.114 309.284 L 163.581 309.395 C 158.831 309.328 154.459 313.638 154.459 318.39 C 154.459 323.14 158.831 327.45 163.581 327.382 L 185.614 327.27 L 180.218 338.172 L 151.89 338.172 L 137.84 313.442 L 152.001 287.813 L 182.138 287.813 L 189.161 302.23 L 207.259 302.23 L 195.851 274.887 L 193.377 269.83 L 187.759 269.83 L 146.721 269.83 Z" id="path2996-0"/>
  <g transform="matrix(0.202521, 0, 0, 0.202521, 294.22757, 253.635056)">
    <path fill="#FFA400" d="M344.592,276.957h-58.997v-30.291c0-24.191-19.685-43.876-43.876-43.876s-43.876,19.685-43.876,43.876&#10;&#9;&#9;v30.291h-58.997v-30.291c0-56.724,46.149-102.873,102.873-102.873s102.873,46.149,102.873,102.873V276.957z"/>
    <path fill="#003A70" d="M368.389,276.957h-253.34c-10.816,0-19.665,8.85-19.665,19.665v187.406&#10;&#9;&#9;c0,10.816,8.849,19.666,19.665,19.666h253.34c10.816,0,19.665-8.85,19.665-19.666V296.622&#10;&#9;&#9;C388.054,285.806,379.205,276.957,368.389,276.957z M254.559,400.001v25.393c0,7.087-5.749,12.837-12.837,12.837&#10;&#9;&#9;s-12.837-5.749-12.837-12.837v-25.389c-7.897-4.481-13.233-12.947-13.233-22.674c0-14.396,11.671-26.067,26.067-26.067&#10;&#9;&#9;c14.396,0,26.067,11.671,26.067,26.067C267.786,387.058,262.451,395.523,254.559,400.001z"/>
    <path fill="#FFA400" d="M89.367,249.016H28.235c-9.911,0-17.948-8.036-17.948-17.948c0-9.912,8.036-17.948,17.948-17.948h61.132&#10;&#9;&#9;c9.911,0,17.948,8.036,17.948,17.948C107.315,240.98,99.278,249.016,89.367,249.016z"/>
    <path fill="#FFA400" d="M132.43,152.854c-4.01,0-8.048-1.338-11.389-4.085l-48.356-39.761c-7.656-6.296-8.758-17.606-2.462-25.262&#10;&#9;&#9;c6.294-7.654,17.601-8.762,25.262-2.464l48.356,39.761c7.656,6.296,8.758,17.606,2.462,25.262&#10;&#9;&#9;C142.756,150.62,137.613,152.854,132.43,152.854z"/>
    <path fill="#FFA400" d="M241.718,110.588c-9.911,0-17.948-8.036-17.948-17.948V31.027c0-9.912,8.036-17.948,17.948-17.948&#10;&#9;&#9;c9.911,0,17.948,8.036,17.948,17.948V92.64C259.665,102.552,251.629,110.588,241.718,110.588z"/>
    <g>
      <g>
        <path fill="#FFA400" d="M351.008,152.854c-5.186,0-10.326-2.233-13.873-6.55c-6.296-7.656-5.194-18.966,2.462-25.262&#10;&#9;&#9;&#9;&#9;l48.356-39.761c7.664-6.299,18.971-5.19,25.262,2.464c6.296,7.656,5.194,18.966-2.462,25.262l-48.356,39.761&#10;&#9;&#9;&#9;&#9;C359.055,151.515,355.018,152.854,351.008,152.854z"/>
      </g>
    </g>
    <path fill="#FFA400" d="M455.203,249.016H393.49c-9.911,0-17.948-8.036-17.948-17.948c0-9.912,8.036-17.948,17.948-17.948h61.713&#10;&#9;&#9;c9.911,0,17.948,8.036,17.948,17.948C473.15,240.98,465.114,249.016,455.203,249.016z"/>
  </g>
  <ellipse transform="matrix(NaN, NaN, NaN, NaN, NaN, NaN)" style="fill: rgb(216, 216, 216);"/>
</svg>