<?xml version="1.0" encoding="UTF-8" standalone="no"?>
<!-- Created with Inkscape (http://www.inkscape.org/) -->
<svg
   xmlns:dc="http://purl.org/dc/elements/1.1/"
   xmlns:cc="http://web.resource.org/cc/"
   xmlns:rdf="http://www.w3.org/1999/02/22-rdf-syntax-ns#"
   xmlns:svg="http://www.w3.org/2000/svg"
   xmlns="http://www.w3.org/2000/svg"
   xmlns:sodipodi="http://sodipodi.sourceforge.net/DTD/sodipodi-0.dtd"
   xmlns:inkscape="http://www.inkscape.org/namespaces/inkscape"
   width="11.289"
   height="19.139271"
   id="svg2246"
   sodipodi:version="0.32"
   inkscape:version="0.45.1"
   version="1.0"
   sodipodi:docbase="C:\Documents and Settings\JCARTIER\Bureau"
   sodipodi:docname="light.svg"
   inkscape:output_extension="org.inkscape.output.svg.inkscape">
  <defs
     id="defs2248" />
  <sodipodi:namedview
     id="base"
     pagecolor="#ffffff"
     bordercolor="#666666"
     borderopacity="1.0"
     inkscape:pageopacity="0.0"
     inkscape:pageshadow="2"
     inkscape:zoom="0.35"
     inkscape:cx="375"
     inkscape:cy="520"
     inkscape:document-units="px"
     inkscape:current-layer="layer1"
     inkscape:window-width="752"
     inkscape:window-height="579"
     inkscape:window-x="132"
     inkscape:window-y="132" />
  <metadata
     id="metadata2251">
    <rdf:RDF>
      <cc:Work
         rdf:about="">
        <dc:format>image/svg+xml</dc:format>
        <dc:type
           rdf:resource="http://purl.org/dc/dcmitype/StillImage" />
      </cc:Work>
    </rdf:RDF>
  </metadata>
  <g
     inkscape:label="Calque 1"
     inkscape:groupmode="layer"
     id="layer1"
     transform="translate(-369.3555,-522.79255)">
    <path
       style="opacity:1;fill:#fce94f;fill-opacity:1;stroke:#c4a000;stroke-width:1.28900003;stroke-linecap:square;stroke-linejoin:miter;stroke-miterlimit:4;stroke-dasharray:none;stroke-dashoffset:0;stroke-opacity:1"
       d="M 374.5,523.44464 C 371.97974,523.70084 370,525.85714 370,528.44464 C 370,529.60548 370.39796,530.65825 371.0625,531.50714 C 371.0625,531.50714 372.99553,534.44464 373.03125,536.44464 L 376.875,536.44464 C 376.98035,534.75896 378.85786,531.55646 379,531.41339 C 379.62405,530.5791 380,529.56589 380,528.44464 C 380,525.68464 377.76,523.44464 375,523.44464 C 374.8275,523.44464 374.66802,523.42756 374.5,523.44464 z "
       id="path4122"
       sodipodi:nodetypes="csccccssc" />
    <path
       style="fill:#2e3436;fill-rule:evenodd;stroke:#000000;stroke-width:1px;stroke-linecap:butt;stroke-linejoin:miter;stroke-opacity:1"
       d="M 373.03572,539.43182 C 373.53572,538.93182 376.50893,538.93182 377,539.43182 C 377.49107,539.93182 375.99107,541.43182 375,541.43182 C 374.00893,541.43182 372.53572,539.93182 373.03572,539.43182 z "
       id="path4129"
       sodipodi:nodetypes="czzz" />
    <path
       style="fill:#d3d7cf;fill-rule:evenodd;stroke:#555753;stroke-width:1px;stroke-linecap:butt;stroke-linejoin:miter;stroke-opacity:1"
       d="M 373,536.43182 L 377,536.43182 L 377,539.43182 L 373,539.43182 L 373,536.43182 z "
       id="path4124" />
  </g>
</svg>
