<?xml version="1.0" encoding="utf-8"?>
<!-- Generator: Adobe Illustrator 16.0.0, SVG Export Plug-In . SVG Version: 6.00 Build 0)  -->
<!DOCTYPE svg PUBLIC "-//W3C//DTD SVG 1.1//EN" "http://www.w3.org/Graphics/SVG/1.1/DTD/svg11.dtd">
<svg version="1.1" id="Layer_1" xmlns="http://www.w3.org/2000/svg" xmlns:xlink="http://www.w3.org/1999/xlink" x="0px" y="0px"
	 width="1238px" height="377px" viewBox="0 0 1238 377" enable-background="new 0 0 1238 377" xml:space="preserve">
<g>
	<path fill-rule="evenodd" clip-rule="evenodd" fill="#52B44B" d="M174,1c28.237,28.317,56.512,56.596,84.646,85.016
		c2.606,2.633,4.044,2.311,6.229-0.185c2.629-3.003,5.805-5.54,8.333-8.617c2.601-3.166,4.261-3.218,7.278-0.148
		c18.573,18.894,37.388,37.549,56.124,56.284c12.843,12.843,25.614,25.759,38.591,38.467c2.52,2.468,2.456,3.741-0.017,6.192
		c-27.099,26.865-54.028,53.9-81.143,80.749c-2.774,2.747-3.013,4.361,0.024,6.892c3.06,2.549,5.54,5.791,8.584,8.362
		c2.683,2.266,2.044,3.66-0.146,5.833c-17.154,17.015-34.194,34.146-51.269,51.241c-14.366,14.384-28.742,28.758-43.08,43.17
		c-1.144,1.149-2.679,2.016-3.155,3.744c-0.333,0-0.667,0-1,0c-28.1-28.147-56.217-56.279-84.265-84.479
		c-1.891-1.901-3.072-1.784-4.811,0.077c-3.066,3.282-6.537,6.198-9.474,9.584c-2.541,2.927-4.146,2.88-6.948,0.049
		c-29.39-29.699-58.915-59.264-88.459-88.809C7.135,211.515,4.651,208.12,1,206c0-0.333,0-0.667,0-1
		c4.265-4.199,8.554-8.373,12.789-12.602c23.793-23.758,47.528-47.575,71.423-71.23c2.644-2.617,2.928-4.091,0-6.551
		c-3.301-2.773-5.979-6.291-9.292-9.047c-3.151-2.622-2.574-4.247,0.093-6.898c31.28-31.102,62.445-62.319,93.606-93.54
		C170.865,3.883,172.627,2.988,173,1C173.333,1,173.667,1,174,1z M146.067,261.054c1.712-0.89,2.732-1.373,3.707-1.933
		c38.794-22.272,77.559-44.598,116.415-66.762c4.085-2.33,2.729-3.134-0.278-4.842c-23.425-13.304-46.788-26.718-70.171-40.096
		c-15.3-8.754-30.627-17.462-45.882-26.293c-2.992-1.731-4.133-1.389-3.823,2.243c0.183,2.149,0.033,4.326,0.033,6.491
		C146.067,173.317,146.067,216.771,146.067,261.054z"/>
	<path fill-rule="evenodd" clip-rule="evenodd" fill="#474747" d="M1239,112c-8.021,16.41-14.739,33.394-21.98,50.145
		c-25.723,59.505-51.348,119.053-76.876,178.642c-1.394,3.252-2.952,4.442-6.529,4.379c-13.15-0.232-26.307-0.092-39.424-0.092
		c-0.649-2.27,0.692-3.766,1.381-5.378c8.88-20.788,17.769-41.574,26.796-62.299c1.212-2.783,1.339-5.055,0.155-7.949
		c-20.808-50.928-41.487-101.907-62.192-152.877c-2.289-5.637-2.283-5.642,3.892-5.643c12.165-0.002,24.333,0.15,36.492-0.092
		c3.698-0.073,5.403,0.84,6.682,4.584c12.359,36.174,24.977,72.261,37.521,108.372c0.435,1.251,0.873,2.5,1.634,4.678
		c3.964-10.468,7.697-20.132,11.289-29.848c10.55-28.544,23.142-56.251,34.447-84.483c1.065-2.659,2.552-3.298,5.223-3.27
		c13.829,0.148,27.66,0.106,41.491,0.131C1239,111.333,1239,111.667,1239,112z"/>
	<path fill-rule="evenodd" clip-rule="evenodd" fill="#474747" d="M643.809,129.855c18.385-30.227,77.382-30.603,92.677,8.1
		c0.452-0.549,0.924-1.022,1.282-1.57c12.802-19.58,31.255-28.168,54.255-27.849c7.845,0.109,15.642,0.764,23.233,2.906
		c24.97,7.048,38.233,24.563,43.712,49.001c1.904,8.493,2.606,17.131,2.632,25.8c0.083,28.333-0.051,56.667,0.127,84.999
		c0.025,3.981-1.09,5.023-4.988,4.923c-10.493-0.271-21.003-0.281-31.494,0.007c-3.839,0.105-4.649-1.059-4.628-4.726
		c0.159-27.332,0.094-54.666,0.08-81.999c-0.003-5.671-0.327-11.315-1.63-16.869c-2.988-12.744-9.375-22.669-23.143-25.135
		c-13.77-2.466-25.375,1.946-33.848,13.327c-5.307,7.13-8.089,15.328-8.137,24.212c-0.152,28.665-0.211,57.331-0.051,85.996
		c0.023,4.189-1.099,5.31-5.226,5.192c-10.491-0.296-21-0.25-31.495-0.013c-3.5,0.079-4.437-0.87-4.417-4.395
		c0.15-27.665,0.093-55.332,0.077-82.998c-0.004-8.246-1.304-16.25-4.837-23.776c-10.715-22.829-40.989-25.632-55.718-5.108
		c-5.49,7.651-8.245,16.344-8.284,25.734c-0.118,28.499-0.14,56.999-0.021,85.498c0.015,3.695-0.606,5.204-4.798,5.071
		c-10.656-0.337-21.331-0.197-31.995-0.057c-2.964,0.038-4.345-0.337-4.336-3.931c0.129-52.499,0.117-104.998,0.018-157.497
		c-0.006-3.244,0.807-4.274,4.126-4.205c9.995,0.208,19.999,0.168,29.997,0.017c2.822-0.043,4.13,0.571,4.416,3.677
		C641.848,119.106,642.869,123.972,643.809,129.855z"/>
	<path fill-rule="evenodd" clip-rule="evenodd" fill="#474747" d="M925.783,131.597c11.598-14.709,27.582-21.186,45.405-24.14
		c43.659-7.236,84.616,22.774,90.822,66.499c2.537,17.873,2.313,35.572-3.925,52.727c-11.39,31.319-34.593,47.746-66.947,52.317
		c-8.963,1.266-17.958,1.262-26.867-0.419c-17.022-3.211-27.468-9.786-38.749-24.355c-1.646,6.012-1.944,11.853-2.413,17.598
		c-0.285,3.503-1.508,4.393-4.852,4.323c-9.825-0.206-19.662-0.255-29.484,0.019c-3.737,0.104-4.718-0.899-4.704-4.675
		c0.146-39.817,0.091-79.636,0.091-119.453c0-34.987,0.073-69.974-0.099-104.96c-0.021-4.097,0.923-5.388,5.145-5.253
		c9.986,0.32,19.999,0.36,29.981-0.011c4.637-0.173,6.124,0.787,6.069,5.816c-0.294,26.986-0.146,53.978-0.111,80.967
		C925.146,129.503,924.67,130.558,925.783,131.597z M927.942,193.348c-0.03,27.778,20.1,48.398,47.411,48.564
		c27.046,0.164,47.188-20.568,47.268-48.653c0.08-28.053-19.518-48.194-46.885-48.186
		C948.524,145.082,927.973,165.841,927.942,193.348z"/>
	<path fill-rule="evenodd" clip-rule="evenodd" fill="#474747" d="M517.618,208.033c-20.161,0-40.322,0.069-60.482-0.067
		c-3.362-0.022-4.242,0.648-3.305,4.1c4.77,17.562,17.306,26.498,34.118,29.657c20.455,3.844,39.769,0.459,56.775-12.344
		c1.552-1.168,2.288-1.195,3.617,0.132c7.424,7.42,14.863,14.827,22.453,22.076c2.371,2.265,0.744,3.32-0.758,4.683
		c-10.963,9.939-23.836,16.285-38.039,20.03c-22.958,6.054-45.869,6.013-68.266-2.188c-30.424-11.139-46.818-33.837-51.68-65.318
		c-2.42-15.671-1.802-31.314,3.299-46.412c10.869-32.172,33.947-49.97,66.991-55.3c14.955-2.413,29.957-1.777,44.59,2.246
		c31.079,8.543,48.26,29.706,53.986,60.808c2.027,11.014,2.354,22.139,1.604,33.348c-0.275,4.116-1.891,4.647-5.421,4.621
		C557.275,207.957,537.446,208.033,517.618,208.033z M542.434,174.108c-1.124-11.854-7.067-20.914-17.05-26.28
		c-9.084-4.884-18.933-6.346-29.019-5.628c-18.806,1.339-33.437,9.177-41.111,27.459c-1.649,3.927-0.678,4.553,3.263,4.53
		c26.484-0.154,52.972-0.081,79.457-0.081C539.447,174.108,540.922,174.108,542.434,174.108z"/>
</g>
</svg>
