<svg version="1.1" id="Layer_1" xmlns="http://www.w3.org/2000/svg" xmlns:xlink="http://www.w3.org/1999/xlink" x="0px" y="0px"
	 viewBox="0 0 875.3 308" style="enable-background:new 0 0 875.3 308;" xml:space="preserve">
<style type="text/css">
	.st0{fill:#00A9E5;}
	.st1{fill:#353535;}
	.st2{fill:none;}
	.st3{fill:#00BFB3;}
	.st4{fill:#019B8F;}
	.st5{fill:#FFFFFF;}
	.st6{fill:#93C90E;}
	.st7{fill:#74A300;}
	.st8{fill:#0078A0;}
	.st9{fill-rule:evenodd;clip-rule:evenodd;fill:#F04E98;}
	.st10{fill-rule:evenodd;clip-rule:evenodd;fill:#00A9E5;}
	.st11{fill-rule:evenodd;clip-rule:evenodd;fill:#FED10A;}
	.st12{fill-rule:evenodd;clip-rule:evenodd;fill:#00BFB3;}
	.st13{fill-rule:evenodd;clip-rule:evenodd;fill:#FFFFFF;}
	.st14{fill:#F9B110;}
	.st15{fill:#FED10A;}
	.st16{fill:#3EBEB0;}
	.st17{fill:#F04E98;}
	.st18{fill-rule:evenodd;clip-rule:evenodd;fill:none;}
	.st19{font-family:'OpenSans-Semibold';}
	.st20{font-size:157.1754px;}
</style>
<g>
	<rect x="349.6" y="77.8" class="st18" width="540.3" height="134.3"/>
	<text transform="matrix(1 0 0 1 349.6053 197.203)" class="st19 st20">x-pack</text>
	<g id="X-Pack_2_">
		<path class="st15" d="M224.7,159.6l-64.4-64.4l54.8-54.8c15.5-15.5,40.5-15.5,56,0l8.4,8.4c15.5,15.5,15.5,40.5,0,56L224.7,159.6z
			"/>
		<path class="st8" d="M96,159.6l-55.2,55.2c-15.2,15.2-15.2,39.9,0,55.2l9.2,9.2c15.2,15.2,39.9,15.2,55.2,0l55.2-55.2L96,159.6z"
			/>
		<g>
			<path class="st0" d="M215.5,150.4L105.2,40.1c-15.2-15.2-39.9-15.2-55.2,0l-9.2,9.2c-15.2,15.2-15.2,39.9,0,55.2L96,159.6
				l9.2-9.2C135.6,119.9,185.1,119.9,215.5,150.4z"/>
			<path class="st1" d="M215.5,150.4c-30.5-30.5-79.9-30.5-110.4,0l-9.2,9.2l0,0l64.4,64.4l64.4-64.4L215.5,150.4z"/>
		</g>
		<g>
			<path class="st3" d="M279.9,214.8L243.1,178l-64.4,64.4l36.8,36.8c15.2,15.2,39.9,15.2,55.2,0l9.2-9.2
				C295.1,254.7,295.1,230,279.9,214.8z"/>

				<rect x="156.2" y="188" transform="matrix(0.7071 -0.7071 0.7071 0.7071 -83.039 201.5172)" class="st4" width="91" height="26"/>
		</g>
	</g>
</g>
</svg>
