<?xml version="1.0" encoding="UTF-8" standalone="no"?>
<!-- Generator: Adobe Illustrator 18.1.1, SVG Export Plug-In . SVG Version: 6.00 Build 0)  -->

<svg
   xmlns:dc="http://purl.org/dc/elements/1.1/"
   xmlns:cc="http://creativecommons.org/ns#"
   xmlns:rdf="http://www.w3.org/1999/02/22-rdf-syntax-ns#"
   xmlns:svg="http://www.w3.org/2000/svg"
   xmlns="http://www.w3.org/2000/svg"
   xmlns:sodipodi="http://sodipodi.sourceforge.net/DTD/sodipodi-0.dtd"
   xmlns:inkscape="http://www.inkscape.org/namespaces/inkscape"
   version="1.1"
   id="Layer_1"
   x="0px"
   y="0px"
   viewBox="-241 323.5 122.5 122.5"
   enable-background="new -241 323.5 122.5 122.5"
   xml:space="preserve"
   inkscape:version="0.92.1 r15371"
   sodipodi:docname="catalogIcon-laverna.svg"><metadata
     id="metadata20"><rdf:RDF><cc:Work
         rdf:about=""><dc:format>image/svg+xml</dc:format><dc:type
           rdf:resource="http://purl.org/dc/dcmitype/StillImage" /><dc:title></dc:title></cc:Work></rdf:RDF></metadata><defs
     id="defs18"><linearGradient
       id="linearGradient4248"
       spreadMethod="pad"
       gradientTransform="matrix(56.328472,0,0,-56.328472,317.17676,371.51758)"
       gradientUnits="userSpaceOnUse"
       y2="0"
       x2="1"
       y1="0"
       x1="0"><stop
         id="stop4250"
         offset="0"
         style="stop-opacity:1;stop-color:#df4847" /><stop
         id="stop4252"
         offset="0.34703259"
         style="stop-opacity:1;stop-color:#df4847" /><stop
         id="stop4254"
         offset="1"
         style="stop-opacity:1;stop-color:#ec008c" /></linearGradient><linearGradient
       id="linearGradient4226"
       spreadMethod="pad"
       gradientTransform="matrix(48.480545,83.970779,83.970779,-48.480545,316.6582,298.05957)"
       gradientUnits="userSpaceOnUse"
       y2="0"
       x2="1"
       y1="0"
       x1="0"><stop
         id="stop4228"
         offset="0"
         style="stop-opacity:1;stop-color:#0097d7" /><stop
         id="stop4230"
         offset="0.97453539"
         style="stop-opacity:1;stop-color:#a3238e" /><stop
         id="stop4232"
         offset="1"
         style="stop-opacity:1;stop-color:#a3238e" /></linearGradient><linearGradient
       id="linearGradient4206"
       spreadMethod="pad"
       gradientTransform="matrix(-58.004215,-5.1e-6,-5.1e-6,58.004215,289.50098,307.36328)"
       gradientUnits="userSpaceOnUse"
       y2="0"
       x2="1"
       y1="0"
       x1="0"><stop
         id="stop4208"
         offset="0"
         style="stop-opacity:1;stop-color:#b5cd3e" /><stop
         id="stop4210"
         offset="1"
         style="stop-opacity:1;stop-color:#fff200" /></linearGradient><linearGradient
       id="linearGradient4184"
       spreadMethod="pad"
       gradientTransform="matrix(-40.047661,-72.247864,-72.247864,40.047661,286.51416,383.70361)"
       gradientUnits="userSpaceOnUse"
       y2="0"
       x2="1"
       y1="0"
       x1="0"><stop
         id="stop4186"
         offset="0"
         style="stop-opacity:1;stop-color:#f6c655" /><stop
         id="stop4188"
         offset="0.42208558"
         style="stop-opacity:1;stop-color:#f6c655" /><stop
         id="stop4190"
         offset="1"
         style="stop-opacity:1;stop-color:#f58220" /></linearGradient></defs><sodipodi:namedview
     pagecolor="#ffffff"
     bordercolor="#666666"
     borderopacity="1"
     objecttolerance="10"
     gridtolerance="10"
     guidetolerance="10"
     inkscape:pageopacity="0"
     inkscape:pageshadow="2"
     inkscape:window-width="1920"
     inkscape:window-height="1016"
     id="namedview16"
     showgrid="false"
     inkscape:zoom="1.9265306"
     inkscape:cx="40.808035"
     inkscape:cy="74.263134"
     inkscape:window-x="0"
     inkscape:window-y="27"
     inkscape:window-maximized="1"
     inkscape:current-layer="Layer_1" /><g
     id="Layer_1_1_" /><g
     transform="matrix(0.61106671,0,0,0.61106671,-232.69488,-225.62705)"
     id="layer1"
     inkscape:label="Layer 1"
     style="fill:#000000"><g
       style="fill:#000000"
       transform="translate(0.22069899,-1.06359)"
       id="g4327"><g
         style="fill:#000000"
         transform="matrix(1.25,0,0,-1.25,-291.66793,1422.112)"
         id="g4172"><g
           style="fill:#000000"
           id="g4174"><g
             style="fill:#000000"
             id="g4180"><g
               style="fill:#000000"
               id="g4182"><path
                 d="m 234.766,317.519 0.029,-0.054 0.021,-0.04 16.612,-10.939 9.392,11.022 28.738,44.519 c 5.06,9.22 -2.796,20.741 -12.005,21.722 v 0 c -14.279,-22.064 -28.533,-44.147 -42.787,-66.23"
                 style="fill:#000000;stroke:none"
                 id="path4192"
                 inkscape:connector-curvature="0" /></g></g></g></g><g
         style="fill:#000000"
         transform="matrix(1.25,0,0,-1.25,-291.66793,1422.112)"
         id="g4194"><g
           style="fill:#000000"
           id="g4196"><g
             style="fill:#000000"
             id="g4202"><g
               style="fill:#000000"
               id="g4204"><path
                 d="m 246.426,295.132 2.069,0.003 v 0.014 c 16.905,0 33.952,0.058 50.449,0.085 v 0 c 0.119,-0.013 0.232,-0.044 0.337,-0.085 v 0 h 2.045 c 4.548,8.625 -0.85,22.224 -11.648,22.421 v 0 c -23.674,-0.037 -5.108,-0.024 -28.84,-0.063 v 0 l -23.679,-0.039 c -0.979,0.119 -1.53,1.246 -1.037,2.127 v 0 c -6.755,-8.307 -1.394,-24.25 10.304,-24.463"
                 style="fill:#000000;stroke:none"
                 id="path4212"
                 inkscape:connector-curvature="0" /></g></g></g></g><g
         style="fill:#000000"
         transform="matrix(1.25,0,0,-1.25,-291.66793,1422.112)"
         id="g4214"><g
           style="fill:#000000"
           id="g4216"><g
             style="fill:#000000"
             id="g4222"><g
               style="fill:#000000"
               id="g4224"><path
                 d="m 341.699,361.373 -28.738,-44.518 c -5.059,-9.221 2.795,-20.742 12.005,-21.723 v 0 c 14.279,22.064 28.532,44.149 42.787,66.23 v 0 l -0.028,0.054 -0.022,0.04 -16.612,10.939 z"
                 style="fill:#000000;stroke:none"
                 id="path4234"
                 inkscape:connector-curvature="0" /></g></g></g></g><g
         style="fill:#000000"
         transform="matrix(1.25,0,0,-1.25,-291.66793,1422.112)"
         id="g4236"><g
           style="fill:#000000"
           id="g4238"><g
             style="fill:#000000"
             id="g4244"><g
               style="fill:#000000"
               id="g4246"><path
                 d="m 354.023,383.746 v -0.014 c -16.905,0 -33.951,-0.058 -50.449,-0.085 v 0 c -0.118,0.014 -0.23,0.044 -0.336,0.085 v 0 h -2.045 c -4.548,-8.625 0.85,-22.224 11.649,-22.422 v 0 c 23.672,0.039 5.107,0.025 28.838,0.064 v 0 l 23.679,0.039 c 0.979,-0.119 1.53,-1.246 1.037,-2.127 v 0 c 6.757,8.307 1.394,24.25 -10.303,24.463 v 0 z"
                 style="fill:#000000;stroke:none"
                 id="path4256"
                 inkscape:connector-curvature="0" /></g></g></g></g></g></g></svg>