<svg id="svg" version="1.1" width="500" height="521" xmlns="http://www.w3.org/2000/svg" xmlns:xlink="http://www.w3.org/1999/xlink" style="display: block;"><g id="svgg"><path id="path0" d="M17.924 189.000 L 16.400 190.800 18.170 189.303 C 19.148 188.476,20.509 188.024,21.212 188.294 C 21.947 188.576,22.277 188.448,21.994 187.991 C 21.186 186.684,19.540 187.092,17.924 189.000 M40.216 227.945 C 40.280 228.794,40.617 229.313,40.966 229.097 C 41.853 228.549,41.760 226.400,40.850 226.400 C 40.437 226.400,40.152 227.095,40.216 227.945 M108.800 375.758 C 108.800 376.830,110.999 379.668,111.466 379.199 C 111.684 378.979,111.173 377.950,110.331 376.911 C 109.489 375.873,108.800 375.354,108.800 375.758 " stroke="none" fill="#000000" fill-rule="evenodd"></path><path id="path1" d="M285.400 99.786 C 287.270 99.954,290.330 99.954,292.200 99.786 C 294.070 99.617,292.540 99.480,288.800 99.480 C 285.060 99.480,283.530 99.617,285.400 99.786 M163.600 124.000 C 163.328 124.440,162.073 124.800,160.810 124.800 C 159.547 124.800,157.974 125.340,157.314 126.000 C 156.654 126.660,155.601 127.200,154.974 127.200 C 154.347 127.200,152.863 128.100,151.676 129.200 C 150.489 130.300,149.241 131.200,148.903 131.200 C 147.857 131.200,143.200 135.688,143.200 136.696 C 143.200 137.221,142.660 137.857,142.000 138.111 C 141.340 138.364,140.800 139.073,140.800 139.686 C 140.800 140.299,140.440 140.800,140.000 140.800 C 139.560 140.800,139.200 141.296,139.200 141.902 C 139.200 142.508,138.660 143.452,138.000 144.000 C 137.340 144.548,136.800 145.873,136.800 146.945 C 136.800 148.041,136.450 148.678,136.000 148.400 C 135.518 148.102,135.200 149.169,135.200 151.086 C 135.200 152.919,134.776 154.408,134.200 154.600 C 133.490 154.837,133.200 157.218,133.200 162.800 C 133.200 168.382,133.490 170.763,134.200 171.000 C 134.773 171.191,135.200 172.671,135.200 174.467 C 135.200 176.190,135.560 177.600,136.000 177.600 C 136.440 177.600,136.800 178.294,136.800 179.143 C 136.800 179.991,137.340 181.226,138.000 181.886 C 138.660 182.546,139.200 183.471,139.200 183.943 C 139.200 184.414,139.560 184.800,140.000 184.800 C 140.440 184.800,140.800 185.284,140.800 185.876 C 140.800 186.467,141.700 187.997,142.799 189.276 C 143.898 190.554,144.798 191.870,144.799 192.200 C 144.800 192.530,145.175 192.800,145.634 192.800 C 146.418 192.800,147.323 193.426,149.971 195.800 C 150.584 196.350,151.471 196.800,151.943 196.800 C 152.414 196.800,152.800 197.160,152.800 197.600 C 152.800 198.040,153.700 198.400,154.800 198.400 C 156.044 198.400,156.800 198.853,156.800 199.600 C 156.800 200.434,157.639 200.800,159.553 200.800 C 161.067 200.800,162.528 201.160,162.800 201.600 C 163.087 202.064,167.475 202.400,173.247 202.400 C 179.349 202.400,183.200 202.090,183.200 201.600 C 183.200 201.160,184.471 200.800,186.025 200.800 C 187.798 200.800,189.022 200.353,189.311 199.600 C 189.564 198.940,190.262 198.400,190.861 198.400 C 194.439 198.400,206.400 187.945,206.400 184.817 C 206.400 183.913,206.929 183.200,207.600 183.200 C 208.260 183.200,208.800 182.833,208.800 182.383 C 208.800 180.540,285.587 182.188,287.560 184.074 C 287.978 184.473,289.649 184.800,291.274 184.800 C 293.163 184.800,294.395 185.233,294.689 186.000 C 294.943 186.660,295.881 187.200,296.775 187.200 C 297.669 187.200,298.400 187.560,298.400 188.000 C 298.400 188.440,299.120 188.800,300.000 188.800 C 300.880 188.800,301.600 189.143,301.600 189.562 C 301.600 189.982,302.902 190.943,304.493 191.698 C 306.084 192.453,308.514 194.209,309.893 195.601 C 311.272 196.993,313.009 198.353,313.753 198.623 C 314.498 198.893,315.755 200.123,316.548 201.357 C 317.341 202.591,319.152 204.815,320.572 206.300 C 321.993 207.785,323.370 209.675,323.632 210.500 C 323.894 211.325,324.444 212.000,324.854 212.000 C 325.264 212.000,325.600 212.720,325.600 213.600 C 325.600 214.480,325.872 215.200,326.205 215.200 C 326.537 215.200,327.273 216.370,327.839 217.800 C 328.406 219.230,329.394 221.419,330.035 222.665 C 330.676 223.910,331.200 225.950,331.200 227.198 C 331.200 228.446,331.606 229.602,332.103 229.768 C 333.366 230.189,333.360 258.613,332.097 259.034 C 331.604 259.199,331.200 260.409,331.200 261.724 C 331.200 263.039,330.660 264.654,330.000 265.314 C 329.340 265.974,328.800 267.389,328.800 268.457 C 328.800 269.526,328.530 270.403,328.200 270.406 C 327.503 270.413,325.600 274.269,325.600 275.674 C 325.600 276.199,325.060 276.836,324.400 277.089 C 323.740 277.343,323.200 278.101,323.200 278.775 C 323.200 279.449,322.840 280.000,322.400 280.000 C 321.960 280.000,321.600 280.317,321.600 280.703 C 321.600 281.464,311.501 292.000,310.772 292.000 C 310.529 292.000,309.360 292.900,308.173 294.000 C 306.987 295.100,305.563 296.000,305.008 296.000 C 304.454 296.000,303.999 296.270,303.997 296.600 C 303.995 296.930,302.375 297.866,300.397 298.679 C 298.419 299.493,296.800 300.483,296.800 300.879 C 296.800 301.276,295.900 301.600,294.800 301.600 C 293.700 301.600,292.800 301.960,292.800 302.400 C 292.800 302.840,292.069 303.200,291.175 303.200 C 290.281 303.200,289.343 303.740,289.089 304.400 C 288.836 305.060,288.127 305.600,287.514 305.600 C 286.866 305.600,286.400 306.417,286.400 307.553 C 286.400 308.627,286.040 309.728,285.600 310.000 C 285.160 310.272,284.800 311.759,284.800 313.304 C 284.800 314.850,284.260 316.654,283.600 317.314 C 282.940 317.974,282.400 319.569,282.400 320.857 C 282.400 322.146,282.040 323.200,281.600 323.200 C 281.160 323.200,280.800 324.460,280.800 326.000 C 280.800 327.540,280.447 328.800,280.015 328.800 C 279.584 328.800,279.005 329.700,278.729 330.800 C 278.452 331.900,277.906 332.800,277.513 332.800 C 277.121 332.800,276.800 333.700,276.800 334.800 C 276.800 335.900,276.522 336.800,276.182 336.800 C 275.842 336.800,274.885 338.060,274.056 339.600 C 273.227 341.140,272.245 342.400,271.874 342.400 C 271.503 342.400,271.200 342.924,271.200 343.564 C 271.200 344.204,270.300 345.627,269.200 346.727 C 268.100 347.827,267.200 348.931,267.200 349.180 C 267.200 350.228,253.983 362.511,251.326 363.933 C 250.445 364.404,249.231 365.242,248.629 365.795 C 247.032 367.259,244.604 368.778,243.000 369.317 C 242.230 369.575,241.600 370.105,241.600 370.493 C 241.600 370.882,240.949 371.200,240.153 371.200 C 239.357 371.200,238.007 371.729,237.153 372.375 C 236.299 373.021,234.790 373.561,233.800 373.575 C 232.810 373.589,232.000 373.960,232.000 374.400 C 232.000 374.840,231.100 375.200,230.000 375.200 C 228.900 375.200,228.000 375.560,228.000 376.000 C 228.000 376.440,226.766 376.800,225.257 376.800 C 223.749 376.800,221.974 377.340,221.314 378.000 C 220.461 378.854,218.380 379.200,214.104 379.200 C 210.799 379.200,207.872 379.560,207.600 380.000 C 207.328 380.440,204.607 380.800,201.553 380.800 C 198.384 380.800,196.000 380.456,196.000 380.000 C 196.000 379.534,193.362 379.200,189.686 379.200 C 184.811 379.200,183.266 378.926,182.911 378.000 C 182.624 377.252,181.404 376.800,179.672 376.800 C 178.144 376.800,176.672 376.440,176.400 376.000 C 176.128 375.560,175.027 375.200,173.953 375.200 C 172.879 375.200,172.000 374.840,172.000 374.400 C 172.000 373.960,171.246 373.600,170.323 373.600 C 168.600 373.600,163.809 371.270,163.333 370.200 C 163.187 369.870,162.377 369.600,161.533 369.600 C 160.690 369.600,160.000 369.264,160.000 368.854 C 160.000 368.444,159.218 367.860,158.261 367.556 C 157.305 367.253,155.775 366.301,154.861 365.441 C 153.948 364.581,152.210 363.287,151.000 362.566 C 149.790 361.845,148.800 360.973,148.800 360.628 C 148.800 360.282,148.260 360.000,147.600 360.000 C 146.940 360.000,146.400 359.521,146.400 358.935 C 146.400 358.350,145.500 357.389,144.400 356.800 C 143.300 356.211,142.398 355.520,142.395 355.265 C 142.392 355.009,140.602 352.860,138.417 350.488 C 136.232 348.117,134.607 345.912,134.807 345.589 C 135.007 345.266,134.277 344.331,133.185 343.511 C 132.093 342.691,131.200 341.424,131.200 340.696 C 131.200 339.967,130.660 339.164,130.000 338.911 C 129.340 338.657,128.800 337.970,128.800 337.382 C 128.800 336.024,124.901 328.157,123.931 327.557 C 123.529 327.309,123.200 326.227,123.200 325.153 C 123.200 324.079,122.840 323.200,122.400 323.200 C 121.960 323.200,121.600 322.300,121.600 321.200 C 121.600 320.035,121.140 319.200,120.498 319.200 C 119.892 319.200,118.968 318.684,118.445 318.054 C 117.687 317.141,114.705 316.908,103.765 316.908 C 94.744 316.908,89.938 316.615,89.751 316.054 C 89.595 315.584,88.101 315.200,86.431 315.200 C 84.709 315.200,82.965 314.681,82.400 314.000 C 81.852 313.340,80.800 312.800,80.062 312.800 C 78.352 312.800,74.414 310.990,74.406 310.200 C 74.403 309.870,73.539 309.600,72.486 309.600 C 71.433 309.600,70.364 309.060,70.111 308.400 C 69.857 307.740,69.099 307.200,68.425 307.200 C 67.751 307.200,67.200 306.840,67.200 306.400 C 67.200 305.960,66.824 305.600,66.365 305.600 C 65.906 305.600,64.560 304.700,63.373 303.600 C 62.187 302.500,60.982 301.600,60.696 301.600 C 59.621 301.600,51.200 292.717,51.200 291.583 C 51.200 290.932,50.840 290.400,50.400 290.400 C 49.960 290.400,49.600 289.860,49.600 289.200 C 49.600 288.540,49.060 288.000,48.400 288.000 C 47.733 288.000,47.200 287.289,47.200 286.400 C 47.200 285.520,46.930 284.796,46.600 284.791 C 46.270 284.786,45.312 283.346,44.471 281.591 C 43.631 279.836,42.641 278.400,42.271 278.400 C 41.902 278.400,41.600 277.140,41.600 275.600 C 41.600 274.060,41.240 272.800,40.800 272.800 C 40.360 272.800,40.000 271.579,40.000 270.086 C 40.000 268.480,39.536 267.193,38.865 266.936 C 38.087 266.637,37.597 264.659,37.307 260.650 C 37.074 257.433,36.648 253.090,36.361 251.000 C 36.011 248.452,36.129 247.200,36.719 247.200 C 37.277 247.200,37.600 245.126,37.600 241.543 C 37.600 237.581,37.960 235.526,38.800 234.686 C 40.681 232.805,40.640 224.185,38.744 222.712 C 38.115 222.223,37.600 221.568,37.600 221.255 C 37.600 220.942,37.150 220.184,36.600 219.571 C 34.226 216.923,33.600 216.018,33.600 215.234 C 33.600 214.775,33.240 214.400,32.800 214.400 C 32.360 214.400,32.000 213.500,32.000 212.400 C 32.000 211.300,31.679 210.400,31.287 210.400 C 30.894 210.400,30.348 209.500,30.071 208.400 C 29.795 207.300,29.216 206.400,28.785 206.400 C 28.353 206.400,28.000 205.500,28.000 204.400 C 28.000 203.300,27.640 202.400,27.200 202.400 C 26.760 202.400,26.400 201.706,26.400 200.857 C 26.400 200.009,25.860 198.774,25.200 198.114 C 24.540 197.454,24.000 196.044,24.000 194.980 C 24.000 192.433,21.755 188.000,20.465 188.000 C 19.232 188.000,16.800 190.563,16.800 191.863 C 16.800 192.378,16.439 192.800,15.998 192.800 C 15.556 192.800,14.571 194.240,13.809 196.000 C 13.046 197.760,12.164 199.200,11.849 199.200 C 11.533 199.200,10.688 200.550,9.970 202.200 C 9.253 203.850,8.336 205.825,7.933 206.589 C 7.530 207.353,7.200 208.549,7.200 209.246 C 7.200 209.944,6.660 211.054,6.000 211.714 C 5.340 212.374,4.800 213.609,4.800 214.457 C 4.800 215.306,4.440 216.000,4.000 216.000 C 3.560 216.000,3.200 217.360,3.200 219.022 C 3.200 220.684,2.570 222.934,1.800 224.022 C -0.341 227.047,-0.341 276.387,1.800 277.953 C 2.682 278.598,3.200 280.036,3.200 281.841 C 3.200 283.417,3.560 284.928,4.000 285.200 C 4.440 285.472,4.800 286.727,4.800 287.990 C 4.800 289.253,5.340 290.826,6.000 291.486 C 6.660 292.146,7.200 293.251,7.200 293.943 C 7.200 294.634,7.560 295.200,8.000 295.200 C 8.440 295.200,8.800 295.619,8.800 296.131 C 8.800 297.624,11.446 303.200,12.154 303.200 C 12.509 303.200,12.800 303.855,12.800 304.655 C 12.800 305.455,14.060 307.525,15.599 309.255 C 17.139 310.985,18.399 312.800,18.399 313.288 C 18.400 313.776,19.300 314.852,20.400 315.678 C 21.500 316.504,22.400 317.470,22.400 317.824 C 22.400 318.543,23.217 319.575,26.986 323.623 C 28.408 325.150,29.758 326.400,29.986 326.400 C 30.417 326.400,31.053 326.958,37.053 332.600 C 39.042 334.470,41.418 336.000,42.334 336.000 C 43.250 336.000,44.000 336.410,44.000 336.912 C 44.000 338.114,46.456 339.942,48.114 339.975 C 48.837 339.989,49.636 340.540,49.889 341.200 C 50.143 341.860,50.871 342.400,51.508 342.400 C 52.145 342.400,52.787 342.670,52.933 343.000 C 53.409 344.070,58.200 346.400,59.923 346.400 C 60.846 346.400,61.600 346.760,61.600 347.200 C 61.600 347.640,62.500 348.000,63.600 348.000 C 64.700 348.000,65.600 348.360,65.600 348.800 C 65.600 349.240,66.860 349.600,68.400 349.600 C 70.356 349.600,71.200 349.962,71.200 350.800 C 71.200 351.689,72.133 352.000,74.800 352.000 C 76.780 352.000,78.400 352.360,78.400 352.800 C 78.400 353.250,80.638 353.600,83.514 353.600 C 87.323 353.600,88.746 353.906,89.089 354.800 C 89.347 355.473,90.537 356.000,91.797 356.000 C 94.152 356.000,98.400 359.913,98.400 362.082 C 98.400 362.697,98.760 363.200,99.200 363.200 C 99.640 363.200,100.000 363.586,100.000 364.057 C 100.000 364.529,100.450 365.416,101.000 366.029 C 103.173 368.452,104.000 369.554,104.000 370.023 C 104.000 370.835,106.224 372.800,107.143 372.800 C 107.614 372.800,108.000 373.176,108.000 373.635 C 108.000 374.094,108.900 375.440,110.000 376.627 C 111.100 377.813,112.000 379.082,112.000 379.446 C 112.000 380.208,116.535 384.603,119.655 386.862 C 120.822 387.708,122.252 388.850,122.832 389.400 C 123.411 389.950,124.271 390.400,124.743 390.400 C 125.214 390.400,125.600 390.786,125.600 391.257 C 125.600 392.333,127.623 394.400,128.676 394.400 C 129.111 394.400,129.587 394.670,129.733 395.000 C 130.200 396.050,136.717 400.000,137.983 400.000 C 138.652 400.000,139.200 400.540,139.200 401.200 C 139.200 401.860,139.899 402.400,140.753 402.400 C 141.607 402.400,142.528 402.760,142.800 403.200 C 143.072 403.640,143.955 404.000,144.762 404.000 C 145.569 404.000,146.436 404.540,146.689 405.200 C 146.943 405.860,147.881 406.400,148.775 406.400 C 149.669 406.400,150.400 406.760,150.400 407.200 C 150.400 407.640,151.261 408.000,152.314 408.000 C 153.367 408.000,154.436 408.540,154.689 409.200 C 154.943 409.860,156.040 410.400,157.128 410.400 C 158.216 410.400,159.328 410.760,159.600 411.200 C 159.872 411.640,161.153 412.000,162.447 412.000 C 163.741 412.000,164.800 412.360,164.800 412.800 C 164.800 413.240,166.290 413.600,168.112 413.600 C 170.285 413.600,171.760 414.060,172.403 414.939 C 174.384 417.648,228.833 417.453,231.559 414.727 C 232.199 414.086,234.264 413.600,236.343 413.600 C 238.354 413.600,240.000 413.240,240.000 412.800 C 240.000 412.360,241.059 412.000,242.353 412.000 C 243.647 412.000,244.928 411.640,245.200 411.200 C 245.472 410.760,246.404 410.400,247.272 410.400 C 248.140 410.400,249.057 409.860,249.311 409.200 C 249.570 408.524,250.761 408.000,252.038 408.000 C 253.285 408.000,254.528 407.640,254.800 407.200 C 255.072 406.760,256.004 406.400,256.872 406.400 C 257.740 406.400,258.657 405.860,258.911 405.200 C 259.164 404.540,260.053 404.000,260.886 404.000 C 261.719 404.000,262.400 403.640,262.400 403.200 C 262.400 402.760,262.940 402.400,263.600 402.400 C 264.260 402.400,264.800 401.860,264.800 401.200 C 264.800 400.453,265.556 400.000,266.800 400.000 C 267.900 400.000,268.800 399.640,268.800 399.200 C 268.800 398.760,269.287 398.400,269.883 398.400 C 270.479 398.400,271.937 397.500,273.124 396.400 C 274.311 395.300,275.470 394.400,275.698 394.400 C 275.927 394.400,276.616 393.950,277.229 393.400 C 279.616 391.259,280.751 390.400,281.189 390.400 C 281.960 390.400,297.600 374.403,297.600 373.614 C 297.600 373.206,298.500 371.973,299.600 370.873 C 300.700 369.773,301.600 368.535,301.600 368.122 C 301.600 367.709,302.140 367.164,302.800 366.911 C 303.460 366.657,304.000 365.719,304.000 364.825 C 304.000 363.931,304.360 363.200,304.800 363.200 C 305.240 363.200,305.600 362.649,305.600 361.975 C 305.600 361.301,306.140 360.543,306.800 360.289 C 307.460 360.036,308.000 359.327,308.000 358.714 C 308.000 358.101,308.360 357.600,308.800 357.600 C 309.240 357.600,309.600 356.700,309.600 355.600 C 309.600 354.500,309.934 353.600,310.341 353.600 C 311.299 353.600,313.600 348.995,313.600 347.077 C 313.600 346.265,313.960 345.600,314.400 345.600 C 314.840 345.600,315.200 344.559,315.200 343.286 C 315.200 341.966,315.716 340.773,316.400 340.511 C 317.060 340.257,317.600 339.139,317.600 338.025 C 317.600 336.911,317.960 336.000,318.400 336.000 C 318.840 336.000,319.200 335.360,319.200 334.578 C 319.200 332.930,321.870 330.400,323.609 330.400 C 324.264 330.400,324.800 330.040,324.800 329.600 C 324.800 329.160,325.340 328.800,326.000 328.800 C 326.660 328.800,327.200 328.457,327.200 328.038 C 327.200 327.618,328.460 326.677,330.000 325.946 C 331.540 325.216,332.800 324.207,332.800 323.704 C 332.800 323.202,333.954 322.280,335.364 321.656 C 337.818 320.569,349.600 309.344,349.600 308.092 C 349.600 307.760,350.677 306.282,351.994 304.807 C 353.310 303.333,354.838 301.108,355.389 299.863 C 355.940 298.618,356.843 297.600,357.395 297.600 C 357.948 297.600,358.400 296.700,358.400 295.600 C 358.400 294.500,358.760 293.600,359.200 293.600 C 359.640 293.600,360.000 292.869,360.000 291.975 C 360.000 291.081,360.489 290.162,361.086 289.933 C 361.683 289.704,362.647 288.005,363.228 286.158 C 363.809 284.311,364.760 282.232,365.342 281.537 C 365.924 280.842,366.400 279.667,366.400 278.926 C 366.400 278.185,366.716 276.953,367.102 276.189 C 368.557 273.309,369.600 268.975,369.600 265.810 C 369.600 263.899,370.017 262.395,370.600 262.201 C 372.265 261.647,372.501 227.342,370.844 226.706 C 369.934 226.357,369.600 225.084,369.600 221.962 C 369.600 219.615,369.240 217.472,368.800 217.200 C 368.360 216.928,368.000 215.642,368.000 214.342 C 368.000 213.042,367.682 211.353,367.293 210.589 C 366.904 209.825,365.374 206.754,363.893 203.764 C 362.412 200.774,360.845 197.624,360.410 196.764 C 359.976 195.904,359.346 195.200,359.010 195.200 C 358.675 195.200,358.400 194.469,358.400 193.575 C 358.400 192.681,357.860 191.743,357.200 191.489 C 356.540 191.236,356.000 190.294,356.000 189.395 C 356.000 188.497,354.740 186.538,353.200 185.042 C 351.660 183.547,350.400 181.980,350.400 181.561 C 350.400 181.143,350.040 180.800,349.600 180.800 C 349.160 180.800,348.794 180.350,348.786 179.800 C 348.779 179.250,347.879 177.952,346.786 176.916 C 345.694 175.880,344.800 174.710,344.800 174.316 C 344.800 173.922,344.414 173.600,343.943 173.600 C 342.835 173.600,340.800 171.565,340.800 170.457 C 340.800 169.986,340.260 169.600,339.600 169.600 C 338.940 169.600,338.400 169.240,338.400 168.800 C 338.400 168.360,337.899 168.000,337.286 168.000 C 336.673 168.000,335.964 167.460,335.711 166.800 C 335.457 166.140,334.855 165.600,334.371 165.600 C 333.888 165.600,332.304 164.340,330.852 162.800 C 329.399 161.260,327.859 160.000,327.428 160.000 C 326.208 160.000,321.600 157.551,321.600 156.902 C 321.600 156.583,320.263 155.838,318.629 155.247 C 316.996 154.656,315.170 153.684,314.572 153.087 C 313.975 152.489,312.971 152.000,312.343 152.000 C 311.714 152.000,311.200 151.640,311.200 151.200 C 311.200 150.760,309.979 150.400,308.486 150.400 C 306.811 150.400,305.595 149.940,305.311 149.200 C 305.044 148.506,303.848 148.000,302.472 148.000 C 301.164 148.000,299.872 147.640,299.600 147.200 C 299.328 146.760,297.507 146.400,295.553 146.400 C 293.599 146.400,292.000 146.040,292.000 145.600 C 292.000 145.117,288.648 144.800,283.543 144.800 C 277.092 144.800,274.801 144.515,273.886 143.600 C 272.858 142.572,267.937 142.400,239.543 142.400 C 206.933 142.400,206.400 142.374,206.400 140.800 C 206.400 139.920,206.040 139.200,205.600 139.200 C 205.160 139.200,204.800 138.812,204.800 138.337 C 204.800 137.237,198.736 131.200,197.631 131.200 C 197.174 131.200,196.800 130.866,196.800 130.459 C 196.800 129.589,192.268 127.200,190.620 127.200 C 189.996 127.200,188.946 126.660,188.286 126.000 C 187.626 125.340,186.031 124.800,184.743 124.800 C 183.454 124.800,182.400 124.440,182.400 124.000 C 182.400 123.513,178.816 123.200,173.247 123.200 C 168.008 123.200,163.883 123.542,163.600 124.000 " stroke="none" fill="#888888" fill-rule="evenodd"></path><path id="path2" d="" stroke="none" fill="#ff0000" fill-rule="evenodd"></path><path id="path3" d="M172.557 0.548 C 170.200 0.759,168.544 1.337,168.272 2.046 C 167.983 2.797,166.659 3.200,164.474 3.200 C 162.629 3.200,160.772 3.548,160.347 3.973 C 159.922 4.398,158.410 4.835,156.987 4.943 C 155.513 5.056,154.400 5.583,154.400 6.170 C 154.400 6.737,153.500 7.200,152.400 7.200 C 151.300 7.200,150.400 7.560,150.400 8.000 C 150.400 8.440,149.341 8.800,148.047 8.800 C 146.753 8.800,145.472 9.160,145.200 9.600 C 144.928 10.040,143.996 10.400,143.128 10.400 C 142.260 10.400,141.343 10.940,141.089 11.600 C 140.836 12.260,139.947 12.800,139.114 12.800 C 138.281 12.800,137.600 13.160,137.600 13.600 C 137.600 14.040,137.060 14.400,136.400 14.400 C 135.740 14.400,135.200 14.940,135.200 15.600 C 135.200 16.347,134.444 16.800,133.200 16.800 C 132.100 16.800,131.200 17.078,131.200 17.418 C 131.200 17.758,129.940 18.715,128.400 19.544 C 126.860 20.373,125.600 21.355,125.600 21.726 C 125.600 22.097,125.225 22.400,124.766 22.400 C 124.308 22.400,123.498 22.767,122.966 23.216 C 118.789 26.742,117.117 27.998,116.600 27.999 C 116.270 28.000,116.000 28.540,116.000 29.200 C 116.000 29.860,115.626 30.400,115.169 30.400 C 114.037 30.400,108.000 36.450,108.000 37.584 C 108.000 38.085,107.640 38.272,107.200 38.000 C 106.760 37.728,106.394 37.797,106.387 38.153 C 106.380 38.509,105.390 39.938,104.187 41.328 C 102.984 42.719,101.280 44.858,100.400 46.083 C 99.520 47.308,98.170 48.861,97.400 49.533 C 96.630 50.205,96.000 51.396,96.000 52.178 C 96.000 52.960,95.640 53.600,95.200 53.600 C 94.760 53.600,94.400 54.121,94.400 54.759 C 94.400 55.396,93.500 56.889,92.400 58.076 C 91.300 59.263,90.400 60.901,90.400 61.717 C 90.400 62.533,90.066 63.200,89.659 63.200 C 88.701 63.200,86.400 67.805,86.400 69.723 C 86.400 70.535,86.040 71.200,85.600 71.200 C 85.160 71.200,84.800 72.291,84.800 73.625 C 84.800 75.043,84.301 76.242,83.600 76.511 C 82.940 76.764,82.400 77.833,82.400 78.886 C 82.400 79.939,82.040 80.800,81.600 80.800 C 81.160 80.800,80.800 81.340,80.800 82.000 C 80.800 83.551,77.951 86.400,76.400 86.400 C 75.740 86.400,75.200 86.760,75.200 87.200 C 75.200 87.640,74.649 88.000,73.975 88.000 C 73.301 88.000,72.543 88.540,72.289 89.200 C 72.036 89.860,71.302 90.400,70.657 90.400 C 69.393 90.400,67.200 92.270,67.200 93.348 C 67.200 93.712,66.159 94.470,64.886 95.034 C 62.269 96.192,54.411 103.618,50.800 108.345 C 49.480 110.073,47.860 112.063,47.200 112.768 C 46.540 113.472,45.460 115.118,44.800 116.424 C 44.140 117.731,43.150 119.276,42.600 119.857 C 42.050 120.439,41.600 121.429,41.600 122.057 C 41.600 122.686,41.240 123.200,40.800 123.200 C 40.360 123.200,40.000 123.902,40.000 124.760 C 40.000 125.618,39.443 126.632,38.761 127.014 C 38.080 127.395,37.463 128.493,37.391 129.453 C 37.319 130.414,36.976 131.200,36.630 131.200 C 36.283 131.200,36.000 132.100,36.000 133.200 C 36.000 134.300,35.680 135.200,35.289 135.200 C 34.898 135.200,34.347 136.434,34.064 137.942 C 33.781 139.450,33.212 140.800,32.800 140.942 C 32.388 141.084,31.963 142.370,31.855 143.800 C 31.748 145.230,31.376 146.400,31.030 146.400 C 30.683 146.400,30.400 148.131,30.400 150.247 C 30.400 152.424,29.883 154.769,29.210 155.647 C 27.491 157.889,27.537 189.473,29.260 190.134 C 30.050 190.437,30.400 191.883,30.400 194.838 C 30.400 197.185,30.760 199.328,31.200 199.600 C 31.640 199.872,32.000 201.289,32.000 202.749 C 32.000 204.209,32.540 205.852,33.200 206.400 C 33.860 206.948,34.400 208.252,34.400 209.298 C 34.400 210.344,34.760 211.200,35.200 211.200 C 35.640 211.200,36.000 211.870,36.000 212.688 C 36.000 213.507,36.900 215.503,38.000 217.124 C 39.100 218.745,40.000 220.415,40.000 220.836 C 40.000 221.256,40.360 221.600,40.800 221.600 C 41.240 221.600,41.600 222.500,41.600 223.600 C 41.600 224.844,42.053 225.600,42.800 225.600 C 43.464 225.600,44.000 226.310,44.000 227.191 C 44.000 229.037,46.376 232.109,47.343 231.512 C 47.704 231.288,48.000 231.667,48.000 232.353 C 48.000 233.039,48.360 233.600,48.800 233.600 C 49.240 233.600,49.607 234.050,49.615 234.600 C 49.624 235.150,50.884 237.036,52.415 238.791 C 53.947 240.546,55.200 242.256,55.200 242.591 C 55.200 242.926,55.514 243.200,55.897 243.200 C 56.281 243.200,58.452 245.000,60.723 247.200 C 62.993 249.400,65.224 251.200,65.679 251.200 C 66.135 251.200,67.696 252.460,69.148 254.000 C 70.601 255.540,72.402 256.800,73.152 256.800 C 73.901 256.800,75.016 257.250,75.629 257.800 C 78.016 259.940,78.896 260.498,81.600 261.583 C 83.140 262.200,84.688 263.177,85.040 263.753 C 85.392 264.329,86.382 264.800,87.240 264.800 C 88.098 264.800,88.800 265.160,88.800 265.600 C 88.800 266.040,89.906 266.400,91.257 266.400 C 92.609 266.400,94.254 266.940,94.914 267.600 C 95.574 268.260,96.989 268.800,98.057 268.800 C 99.126 268.800,100.000 269.160,100.000 269.600 C 100.000 270.040,101.800 270.400,104.000 270.400 C 106.200 270.400,108.000 270.760,108.000 271.200 C 108.000 271.684,111.438 272.000,116.714 272.000 C 123.723 272.000,125.519 272.235,125.889 273.200 C 126.289 274.240,130.824 274.400,159.975 274.400 C 193.067 274.400,193.600 274.425,193.600 276.000 C 193.600 276.880,193.960 277.600,194.400 277.600 C 194.840 277.600,195.200 277.988,195.200 278.463 C 195.200 279.514,201.240 285.600,202.283 285.600 C 202.693 285.600,203.236 286.140,203.489 286.800 C 203.743 287.460,204.681 288.000,205.575 288.000 C 206.469 288.000,207.200 288.360,207.200 288.800 C 207.200 289.240,207.876 289.600,208.702 289.600 C 209.528 289.600,210.621 290.102,211.130 290.716 C 212.863 292.804,234.461 294.659,236.247 292.873 C 236.727 292.393,238.084 292.000,239.262 292.000 C 240.440 292.000,241.852 291.460,242.400 290.800 C 242.948 290.140,243.820 289.600,244.338 289.600 C 246.094 289.600,249.587 287.606,249.594 286.600 C 249.597 286.050,250.140 285.600,250.800 285.600 C 251.460 285.600,252.000 285.240,252.000 284.800 C 252.000 284.360,252.378 284.000,252.841 284.000 C 253.976 284.000,259.191 278.255,259.196 277.000 C 259.198 276.450,259.560 276.000,260.000 276.000 C 260.440 276.000,260.800 275.504,260.800 274.898 C 260.800 274.292,261.340 273.348,262.000 272.800 C 262.660 272.252,263.200 270.948,263.200 269.902 C 263.200 268.856,263.560 268.000,264.000 268.000 C 264.440 268.000,264.800 266.770,264.800 265.267 C 264.800 263.763,265.250 262.384,265.800 262.201 C 267.463 261.647,267.720 246.549,266.077 245.919 C 265.210 245.586,264.800 244.428,264.800 242.314 C 264.800 240.601,264.440 239.200,264.000 239.200 C 263.560 239.200,263.200 238.524,263.200 237.698 C 263.200 236.872,262.660 235.748,262.000 235.200 C 261.340 234.652,260.800 233.708,260.800 233.102 C 260.800 232.496,260.440 232.000,260.000 232.000 C 259.560 232.000,259.200 231.645,259.200 231.211 C 259.200 230.109,254.945 224.067,254.143 224.030 C 253.781 224.014,252.942 223.457,252.278 222.793 C 251.614 222.129,250.740 221.790,250.336 222.040 C 249.931 222.290,249.600 221.933,249.600 221.247 C 249.600 220.561,249.060 220.000,248.400 220.000 C 247.740 220.000,247.200 219.640,247.200 219.200 C 247.200 218.760,246.339 218.400,245.286 218.400 C 244.233 218.400,243.164 217.860,242.911 217.200 C 242.642 216.499,241.443 216.000,240.025 216.000 C 238.691 216.000,237.600 215.640,237.600 215.200 C 237.600 214.710,233.749 214.400,227.647 214.400 C 221.875 214.400,217.487 214.736,217.200 215.200 C 216.928 215.640,215.691 216.000,214.451 216.000 C 213.211 216.000,211.748 216.540,211.200 217.200 C 210.652 217.860,209.528 218.400,208.702 218.400 C 207.876 218.400,207.200 218.760,207.200 219.200 C 207.200 219.640,206.300 220.000,205.200 220.000 C 203.956 220.000,203.200 220.453,203.200 221.200 C 203.200 221.860,202.823 222.400,202.362 222.400 C 200.834 222.400,193.600 230.294,193.600 231.962 C 193.600 232.885,193.076 233.600,192.400 233.600 C 191.740 233.600,191.200 233.971,191.200 234.424 C 191.200 234.983,180.045 235.135,156.600 234.896 C 121.991 234.543,112.800 234.088,112.800 232.726 C 112.800 232.327,111.180 232.000,109.200 232.000 C 106.533 232.000,105.600 231.689,105.600 230.800 C 105.600 230.053,104.844 229.600,103.600 229.600 C 102.500 229.600,101.600 229.240,101.600 228.800 C 101.600 228.360,100.679 228.000,99.553 228.000 C 98.427 228.000,97.715 227.661,97.971 227.246 C 98.228 226.832,97.079 225.853,95.419 225.072 C 93.758 224.290,91.277 222.469,89.906 221.025 C 88.534 219.581,87.135 218.400,86.797 218.400 C 86.156 218.400,82.400 214.594,82.400 213.945 C 82.400 213.740,81.189 212.396,79.709 210.958 C 78.228 209.520,76.764 207.547,76.455 206.572 C 76.145 205.597,75.556 204.800,75.146 204.800 C 74.736 204.800,74.400 204.226,74.400 203.523 C 74.400 202.821,73.704 201.269,72.853 200.075 C 72.002 198.880,71.063 196.931,70.765 195.744 C 70.467 194.556,69.903 193.387,69.511 193.145 C 69.120 192.903,68.800 191.467,68.800 189.953 C 68.800 188.439,68.440 187.200,68.000 187.200 C 67.538 187.200,67.200 184.686,67.200 181.257 C 67.200 177.041,66.851 174.966,66.000 174.114 C 64.543 172.657,64.460 171.447,65.788 171.004 C 66.430 170.790,66.880 168.385,67.073 164.137 C 67.236 160.542,67.691 157.600,68.085 157.600 C 68.478 157.600,68.800 156.494,68.800 155.143 C 68.800 153.791,69.340 152.146,70.000 151.486 C 70.660 150.826,71.200 149.411,71.200 148.343 C 71.200 147.274,71.472 146.400,71.805 146.400 C 72.137 146.400,72.925 145.230,73.556 143.800 C 74.186 142.370,75.174 140.724,75.751 140.143 C 76.328 139.561,76.800 138.571,76.800 137.943 C 76.800 137.314,77.160 136.800,77.600 136.800 C 78.040 136.800,78.400 136.260,78.400 135.600 C 78.400 134.940,78.940 134.400,79.600 134.400 C 80.260 134.400,80.800 134.089,80.800 133.709 C 80.800 133.017,88.581 124.800,89.235 124.800 C 90.129 124.800,92.671 122.039,92.312 121.457 C 92.088 121.096,92.827 120.800,93.953 120.800 C 95.079 120.800,96.000 120.514,96.000 120.164 C 96.000 119.814,97.620 118.860,99.600 118.043 C 101.580 117.227,103.200 116.253,103.200 115.879 C 103.200 115.506,104.100 115.200,105.200 115.200 C 106.300 115.200,107.200 114.840,107.200 114.400 C 107.200 113.960,107.920 113.600,108.800 113.600 C 110.840 113.600,113.600 110.868,113.600 108.847 C 113.600 107.993,113.960 107.072,114.400 106.800 C 114.840 106.528,115.200 104.931,115.200 103.251 C 115.200 101.511,115.717 99.767,116.400 99.200 C 117.060 98.652,117.600 97.189,117.600 95.949 C 117.600 94.709,117.960 93.472,118.400 93.200 C 118.840 92.928,119.200 91.685,119.200 90.438 C 119.200 89.161,119.724 87.970,120.400 87.711 C 121.060 87.457,121.600 86.519,121.600 85.625 C 121.600 84.731,121.960 84.000,122.400 84.000 C 122.840 84.000,123.200 83.324,123.200 82.498 C 123.200 81.672,123.740 80.548,124.400 80.000 C 125.060 79.452,125.600 78.508,125.600 77.902 C 125.600 77.296,125.960 76.800,126.400 76.800 C 126.840 76.800,127.200 76.260,127.200 75.600 C 127.200 74.940,127.560 74.400,128.000 74.400 C 128.440 74.400,128.800 73.946,128.800 73.392 C 128.800 72.837,129.700 71.413,130.800 70.227 C 131.900 69.040,132.800 67.894,132.800 67.679 C 132.800 66.994,140.989 59.200,141.709 59.200 C 142.089 59.200,142.400 58.660,142.400 58.000 C 142.400 57.340,142.855 56.800,143.410 56.800 C 143.966 56.800,145.096 55.900,145.922 54.800 C 146.748 53.700,147.781 52.800,148.217 52.800 C 148.652 52.800,150.763 51.540,152.906 50.000 C 155.050 48.460,157.163 47.200,157.602 47.200 C 158.041 47.200,158.400 46.840,158.400 46.400 C 158.400 45.960,159.066 45.600,159.881 45.600 C 160.695 45.600,163.054 44.700,165.123 43.600 C 167.192 42.500,169.586 41.600,170.442 41.600 C 171.299 41.600,172.000 41.240,172.000 40.800 C 172.000 40.360,173.581 40.000,175.514 40.000 C 177.900 40.000,179.177 39.615,179.489 38.800 C 179.846 37.871,181.402 37.600,186.375 37.600 C 190.125 37.600,192.800 37.267,192.800 36.800 C 192.800 36.343,195.200 36.000,198.400 36.000 C 201.600 36.000,204.000 36.343,204.000 36.800 C 204.000 37.266,206.638 37.600,210.314 37.600 C 215.189 37.600,216.734 37.874,217.089 38.800 C 217.376 39.548,218.596 40.000,220.328 40.000 C 221.856 40.000,223.328 40.360,223.600 40.800 C 223.872 41.240,224.973 41.600,226.047 41.600 C 227.121 41.600,228.000 41.931,228.000 42.336 C 228.000 42.741,229.170 43.326,230.600 43.636 C 232.030 43.946,234.156 44.874,235.323 45.699 C 236.491 46.525,237.983 47.200,238.638 47.200 C 239.293 47.200,240.036 47.740,240.289 48.400 C 240.543 49.060,241.349 49.600,242.081 49.600 C 242.813 49.600,243.995 50.235,244.706 51.011 C 245.418 51.787,247.463 53.368,249.252 54.524 C 252.375 56.543,257.600 61.297,257.600 62.119 C 257.600 62.750,259.821 64.797,260.543 64.830 C 261.270 64.864,265.600 70.861,265.600 71.834 C 265.600 72.171,266.320 72.966,267.200 73.600 C 268.080 74.234,268.800 75.376,268.800 76.137 C 268.800 76.898,269.250 77.808,269.800 78.160 C 271.119 79.004,272.800 82.060,272.800 83.614 C 272.800 84.294,273.264 85.028,273.831 85.246 C 274.399 85.464,274.923 86.437,274.996 87.409 C 275.069 88.381,275.505 89.302,275.964 89.455 C 276.424 89.608,276.800 90.603,276.800 91.667 C 276.800 92.730,277.160 93.600,277.600 93.600 C 278.040 93.600,278.400 94.500,278.400 95.600 C 278.400 96.792,278.858 97.600,279.533 97.600 C 280.157 97.600,280.787 97.918,280.933 98.306 C 281.080 98.694,287.680 99.272,295.600 99.590 C 303.520 99.907,310.120 100.490,310.267 100.884 C 310.413 101.278,311.899 101.600,313.569 101.600 C 315.291 101.600,317.035 102.119,317.600 102.800 C 318.148 103.460,319.200 104.000,319.938 104.000 C 321.648 104.000,325.586 105.810,325.594 106.600 C 325.597 106.930,326.461 107.200,327.514 107.200 C 328.567 107.200,329.636 107.740,329.889 108.400 C 330.143 109.060,330.811 109.600,331.375 109.601 C 331.939 109.601,333.815 110.861,335.545 112.401 C 337.275 113.940,338.996 115.200,339.370 115.200 C 340.429 115.200,347.879 123.159,348.422 124.870 C 348.689 125.712,349.244 126.400,349.654 126.400 C 350.064 126.400,350.400 126.940,350.400 127.600 C 350.400 128.260,350.850 128.804,351.400 128.808 C 351.950 128.813,353.403 130.973,354.630 133.608 C 355.856 136.244,357.206 138.400,357.630 138.400 C 358.053 138.400,358.400 139.660,358.400 141.200 C 358.400 142.740,358.760 144.000,359.200 144.000 C 359.640 144.000,360.000 145.054,360.000 146.343 C 360.000 147.631,360.540 149.226,361.200 149.886 C 362.038 150.724,362.400 152.776,362.400 156.696 C 362.400 159.781,362.760 162.528,363.200 162.800 C 363.640 163.072,364.000 164.713,364.000 166.447 C 364.000 168.181,363.640 169.600,363.200 169.600 C 362.739 169.600,362.400 172.105,362.400 175.514 C 362.400 179.578,362.080 181.552,361.377 181.821 C 360.815 182.037,360.264 183.402,360.153 184.854 C 360.043 186.306,359.585 187.936,359.137 188.476 C 358.582 189.144,358.590 189.623,359.161 189.976 C 359.623 190.261,360.000 191.204,360.000 192.072 C 360.000 192.940,360.540 193.857,361.200 194.111 C 361.860 194.364,362.400 194.918,362.400 195.343 C 362.400 195.767,362.850 196.616,363.400 197.229 C 365.774 199.877,366.400 200.782,366.400 201.566 C 366.400 202.025,366.760 202.400,367.200 202.400 C 367.640 202.400,368.000 203.300,368.000 204.400 C 368.000 205.500,368.353 206.400,368.785 206.400 C 369.216 206.400,369.795 207.300,370.071 208.400 C 370.348 209.500,370.894 210.400,371.287 210.400 C 371.679 210.400,372.000 211.300,372.000 212.400 C 372.000 213.500,372.320 214.400,372.711 214.400 C 373.102 214.400,373.658 215.660,373.947 217.200 C 374.236 218.740,374.816 220.000,375.236 220.000 C 375.656 220.000,376.000 220.828,376.000 221.841 C 376.000 224.258,377.709 227.858,379.116 228.405 C 380.418 228.911,383.200 226.643,383.200 225.076 C 383.200 224.484,383.561 224.000,384.002 224.000 C 384.444 224.000,385.429 222.560,386.191 220.800 C 386.954 219.040,387.826 217.600,388.130 217.600 C 388.839 217.600,391.200 212.892,391.200 211.477 C 391.200 210.885,391.531 210.400,391.936 210.400 C 392.341 210.400,392.909 209.324,393.198 208.009 C 393.487 206.694,394.055 205.413,394.462 205.162 C 394.868 204.911,395.200 203.827,395.200 202.753 C 395.200 201.679,395.560 200.800,396.000 200.800 C 396.440 200.800,396.800 199.404,396.800 197.698 C 396.800 195.992,397.265 194.210,397.834 193.738 C 400.254 191.729,400.598 140.445,398.200 139.104 C 397.241 138.567,396.800 137.341,396.800 135.207 C 396.800 133.495,396.440 131.872,396.000 131.600 C 395.560 131.328,395.200 129.867,395.200 128.353 C 395.200 126.839,394.879 125.600,394.487 125.600 C 394.094 125.600,393.548 124.700,393.271 123.600 C 392.995 122.500,392.416 121.600,391.985 121.600 C 391.553 121.600,391.200 120.700,391.200 119.600 C 391.200 118.500,390.879 117.600,390.487 117.600 C 390.094 117.600,389.548 116.700,389.271 115.600 C 388.995 114.500,388.416 113.600,387.985 113.600 C 387.553 113.600,387.189 112.970,387.175 112.200 C 387.143 110.471,385.341 108.000,384.112 108.000 C 383.610 108.000,383.200 107.310,383.200 106.467 C 383.200 105.624,381.580 103.195,379.600 101.069 C 377.620 98.943,376.000 96.830,376.000 96.374 C 376.000 95.917,374.159 93.936,371.909 91.972 C 369.659 90.007,367.345 87.950,366.766 87.400 C 366.188 86.850,365.389 86.400,364.992 86.400 C 364.595 86.400,363.789 85.500,363.200 84.400 C 362.611 83.300,361.650 82.400,361.065 82.400 C 360.479 82.400,360.000 82.040,360.000 81.600 C 360.000 81.160,359.100 80.800,358.000 80.800 C 356.900 80.800,356.000 80.390,356.000 79.888 C 356.000 78.686,353.544 76.858,351.886 76.825 C 351.163 76.811,350.387 76.319,350.161 75.731 C 349.685 74.491,341.672 70.400,339.720 70.400 C 338.994 70.400,338.400 70.040,338.400 69.600 C 338.400 69.160,337.500 68.800,336.400 68.800 C 335.300 68.800,334.400 68.440,334.400 68.000 C 334.400 67.560,333.140 67.200,331.600 67.200 C 329.644 67.200,328.800 66.838,328.800 66.000 C 328.800 65.111,327.867 64.800,325.200 64.800 C 323.220 64.800,321.600 64.440,321.600 64.000 C 321.600 63.555,319.448 63.200,316.743 63.200 C 313.492 63.200,311.489 62.803,310.686 62.000 C 310.026 61.340,308.614 60.800,307.550 60.800 C 306.480 60.800,305.166 60.084,304.614 59.200 C 304.065 58.320,303.252 57.590,302.808 57.578 C 302.363 57.566,300.950 55.406,299.667 52.778 C 298.384 50.150,297.034 48.000,296.667 48.000 C 296.300 48.000,296.000 47.614,296.000 47.143 C 296.000 46.035,293.965 44.000,292.857 44.000 C 292.386 44.000,292.000 43.614,292.000 43.143 C 292.000 42.671,291.550 41.784,291.000 41.171 C 288.882 38.809,288.000 37.651,288.000 37.234 C 288.000 36.654,281.725 30.400,281.143 30.400 C 280.891 30.400,280.184 29.950,279.571 29.400 C 276.923 27.026,276.018 26.400,275.234 26.400 C 274.775 26.400,274.400 26.014,274.400 25.543 C 274.400 24.435,272.365 22.400,271.257 22.400 C 270.786 22.400,270.400 22.040,270.400 21.600 C 270.400 21.160,269.843 20.800,269.162 20.800 C 268.481 20.800,267.090 19.900,266.070 18.800 C 265.051 17.700,263.448 16.800,262.508 16.800 C 261.523 16.800,260.800 16.292,260.800 15.600 C 260.800 14.853,260.044 14.400,258.800 14.400 C 257.700 14.400,256.800 14.040,256.800 13.600 C 256.800 13.160,256.119 12.800,255.286 12.800 C 254.453 12.800,253.564 12.260,253.311 11.600 C 253.057 10.940,252.119 10.400,251.225 10.400 C 250.331 10.400,249.600 10.040,249.600 9.600 C 249.600 9.160,248.730 8.800,247.667 8.800 C 246.603 8.800,245.613 8.451,245.467 8.025 C 245.320 7.599,244.055 7.165,242.655 7.059 C 241.256 6.954,240.264 6.621,240.451 6.318 C 240.869 5.642,238.808 4.800,236.735 4.800 C 235.891 4.800,235.200 4.510,235.200 4.156 C 235.200 3.802,233.679 3.423,231.821 3.313 C 229.962 3.204,228.191 2.709,227.885 2.213 C 226.932 0.672,185.228 -0.583,172.557 0.548 " stroke="none" fill="#efb634" fill-rule="evenodd"></path><path id="path4" d="M239.805 5.331 C 240.358 5.554,240.653 5.991,240.460 6.302 C 240.268 6.613,240.849 6.923,241.750 6.991 C 243.332 7.111,243.337 7.076,241.895 5.983 C 241.073 5.360,240.040 4.868,239.600 4.889 C 239.160 4.909,239.252 5.109,239.805 5.331 " stroke="none" fill="#ffff00" fill-rule="evenodd"></path></g></svg>