<?xml version="1.0" encoding="utf-8"?>
<!-- Generator: Adobe Illustrator 16.0.0, SVG Export Plug-In . SVG Version: 6.00 Build 0)  -->
<!DOCTYPE svg PUBLIC "-//W3C//DTD SVG 1.1//EN" "http://www.w3.org/Graphics/SVG/1.1/DTD/svg11.dtd">
<svg version="1.1" id="Layer_1" xmlns="http://www.w3.org/2000/svg" xmlns:xlink="http://www.w3.org/1999/xlink" x="0px" y="0px"
	 width="189.502px" height="46.069px" viewBox="0 0 189.502 46.069" enable-background="new 0 0 189.502 46.069"
	 xml:space="preserve">
<g>
	<path d="M0,4.031c0-1.008,0.864-1.536,2.879-1.536h2.543c1.392,0,2.496,0.336,3.023,1.295l8.446,15.021l8.542-15.021
		c0.528-0.959,1.632-1.295,3.023-1.295h2.495c2.016,0,2.88,0.528,2.88,1.536v30.713c0,1.007-0.864,1.536-2.88,1.536h-1.391
		c-2.016,0-2.879-0.528-2.879-1.536V14.876l-0.192-0.048l-6.958,12.429c-0.432,0.576-1.008,0.912-1.919,0.912H16.22
		c-0.912,0-1.487-0.336-1.919-0.912L7.342,14.829L7.15,14.876v19.868c0,1.007-0.864,1.536-2.879,1.536H2.879
		C0.864,36.28,0,35.751,0,34.744V4.031z"/>
	<path d="M50.82,10.702c7.63,0,11.613,4.559,11.613,12.909S58.45,36.567,50.82,36.567S39.159,31.96,39.159,23.61
		S43.19,10.702,50.82,10.702z M55.235,23.61c0-4.799-1.344-7.294-4.415-7.294s-4.463,2.495-4.463,7.294s1.392,7.342,4.463,7.342
		S55.235,28.409,55.235,23.61z"/>
	<path d="M67.807,19.531c0-4.799-0.576-5.807-0.576-6.766c0-1.152,4.175-1.536,5.375-1.536c1.535,0,1.632,1.919,1.92,3.071
		c1.104-2.063,3.455-3.599,6.43-3.599c5.184,0,8.975,4.607,8.975,12.957c0,7.822-3.647,12.909-10.126,12.909
		c-2.256,0-3.887-0.768-4.895-1.487v9.453c0,1.008-0.864,1.536-2.88,1.536h-1.344c-2.016,0-2.879-0.528-2.879-1.536V19.531z
		 M78.269,30.953c3.022,0,4.463-2.495,4.463-7.294c0-4.655-1.248-7.15-3.888-7.15c-1.823,0-3.071,1.344-3.935,2.831v10.702
		C75.677,30.473,76.781,30.953,78.269,30.953z"/>
	<path d="M94.777,5.423V1.536c0-1.008,0.864-1.536,2.88-1.536H99c2.016,0,2.879,0.528,2.879,1.536v3.887
		c0,1.008-0.863,1.536-2.879,1.536h-1.344C95.641,6.958,94.777,6.431,94.777,5.423z M94.777,12.525c0-1.008,0.864-1.536,2.88-1.536
		H99c2.016,0,2.879,0.528,2.879,1.536v22.219c0,1.007-0.863,1.536-2.879,1.536h-1.344c-2.016,0-2.88-0.528-2.88-1.536V12.525z"/>
	<path d="M106.678,23.61c0-7.822,3.647-12.909,10.126-12.909c2.255,0,3.887,0.768,4.895,1.487V1.536
		c0-1.008,0.863-1.536,2.879-1.536h1.344c2.016,0,2.88,0.528,2.88,1.536v26.202c0,4.943,0.575,5.951,0.575,6.958
		c0,1.152-4.175,1.536-5.374,1.536c-1.536,0-1.632-2.016-1.92-3.263c-1.104,2.063-3.455,3.599-6.431,3.599
		C110.469,36.567,106.678,31.96,106.678,23.61z M121.699,27.93V17.228c-0.768-0.432-1.872-0.912-3.359-0.912
		c-3.023,0-4.463,2.495-4.463,7.294c0,4.655,1.248,7.15,3.887,7.15C119.587,30.761,120.834,29.417,121.699,27.93z"/>
	<path d="M132.448,12.909c-0.096-0.336-0.192-0.624-0.192-0.864c0-0.672,0.912-1.056,2.928-1.056h1.535
		c1.393,0,2.448,0.24,2.688,1.008l2.832,8.878c0.336,1.104,0.911,3.743,1.344,5.807h0.191c0.432-2.063,1.008-4.751,1.344-5.807
		l2.831-8.878c0.24-0.768,1.296-1.008,2.688-1.008h1.152c2.016,0,2.879,0.384,2.879,1.056c0,0.24-0.048,0.528-0.144,0.864
		l-10.99,32.152c-0.287,0.768-1.295,1.008-2.687,1.008h-0.816c-1.968,0-2.879-0.384-2.879-1.008c0-0.24,0.048-0.528,0.191-0.864
		l3.023-8.014L132.448,12.909z"/>
	<path d="M177.762,4.246h0.891c2.687,0,4.46,0.109,5.319,0.328c1.233,0.313,2.319,0.914,3.257,1.804
		c0.703,0.656,1.257,1.582,1.664,2.777c0.405,1.195,0.609,2.589,0.609,4.183v2.414h-2.32v-1.008c0-1.062-0.223-1.964-0.668-2.707
		c-0.445-0.742-1.105-1.308-1.979-1.699c-1.141-0.5-2.406-0.75-3.796-0.75h-0.656v19.565c0,1.891-0.25,3.363-0.75,4.417
		c-0.5,1.055-1.359,1.898-2.577,2.531c-1.219,0.633-2.547,0.949-3.984,0.949c-1.702,0-3.05-0.48-4.042-1.441
		c-0.992-0.96-1.487-2.222-1.487-3.784c0-1.64,0.594-3.019,1.78-4.136c1.188-1.117,2.742-1.675,4.663-1.675
		c1.219,0,2.578,0.359,4.077,1.078V4.246z"/>
</g>
</svg>
