<svg version="1.0" xmlns="http://www.w3.org/2000/svg"
 width="600.000000pt" height="600.000000pt" viewBox="0 0 600.000000 600.000000"
 preserveAspectRatio="xMidYMid meet">
<metadata>
Created by potrace 1.10, written by Peter Selinger 2001-2011
</metadata>
<g transform="translate(0.000000,600.000000) scale(0.100000,-0.100000)"
fill="#416ed9" stroke="none">
<path d="M1371 5421 c-14 -4 -33 -23 -44 -45 -20 -38 -20 -39 -1 -73 37 -69
101 -80 144 -26 57 72 -10 170 -99 144z"/>
<path d="M3216 5413 c-16 -3 -44 -16 -63 -30 -25 -19 -33 -33 -33 -57 0 -49
43 -76 117 -76 83 1 103 20 103 98 0 53 -2 60 -22 66 -24 6 -54 6 -102 -1z"/>
<path d="M3230 4906 c-40 -13 -80 -44 -80 -64 0 -7 -7 -15 -15 -18 -8 -4 -15
-12 -15 -19 0 -7 -7 -18 -15 -25 -8 -7 -15 -22 -15 -34 0 -12 -7 -31 -15 -42
-8 -11 -14 -41 -14 -69 0 -28 6 -58 14 -69 8 -11 15 -27 15 -35 0 -22 59 -85
95 -103 17 -8 45 -22 63 -31 19 -9 44 -17 57 -17 13 0 38 8 57 17 18 9 47 23
63 31 17 8 35 20 40 26 6 6 25 19 44 29 44 23 196 25 205 2 3 -8 17 -15 31
-15 14 0 28 -7 31 -15 4 -8 17 -15 30 -15 14 0 27 -7 30 -15 5 -12 26 -15 100
-15 75 0 96 3 100 15 4 8 12 15 19 15 14 0 65 59 65 76 0 6 7 14 15 18 12 4
15 26 15 111 0 87 -3 105 -15 105 -9 0 -15 9 -15 25 0 14 -7 28 -15 31 -8 4
-15 12 -15 20 0 8 -6 14 -14 14 -7 0 -19 7 -26 15 -9 11 -33 15 -85 15 -52 0
-76 -4 -85 -15 -7 -8 -18 -15 -25 -15 -7 0 -18 -7 -25 -15 -7 -8 -20 -15 -30
-15 -10 0 -20 -7 -24 -15 -3 -8 -16 -15 -29 -15 -14 0 -30 -7 -37 -15 -8 -10
-31 -15 -71 -15 -38 0 -63 5 -73 15 -8 8 -26 15 -40 15 -14 0 -26 5 -26 11 0
5 -13 15 -30 20 -16 6 -30 15 -30 20 0 5 -6 9 -14 9 -8 0 -16 7 -20 15 -3 8
-12 15 -19 15 -8 0 -20 6 -26 14 -6 8 -24 16 -39 18 -15 3 -34 8 -42 11 -8 2
-31 0 -50 -7z m834 -100 c17 -19 36 -40 42 -48 17 -22 17 -190 0 -213 -9 -11
-16 -26 -16 -33 0 -19 -24 -40 -54 -48 -35 -9 -33 6 7 37 l33 27 -2 103 c-1
57 -2 114 -3 126 -1 13 -12 27 -28 35 -28 13 -44 48 -22 48 6 0 26 -15 43 -34z"/>
<path d="M2605 4860 c-3 -5 -14 -10 -23 -10 -24 0 -86 -60 -107 -103 -24 -51
-24 -201 1 -248 41 -80 112 -107 242 -93 74 9 142 51 142 87 0 8 7 20 15 27
24 20 21 194 -5 244 -25 51 -46 73 -76 80 -13 4 -24 11 -24 16 0 13 -157 13
-165 0z"/>
<path d="M1991 4782 c-64 -5 -109 -50 -117 -118 -9 -71 8 -116 56 -149 36 -25
46 -27 92 -22 44 6 59 13 88 44 33 35 35 41 35 106 0 68 -1 70 -38 102 -43 37
-55 41 -116 37z"/>
<path d="M4541 4737 c-6 -6 -11 -16 -11 -23 0 -6 -7 -14 -15 -18 -11 -4 -15
-20 -15 -56 0 -38 4 -50 15 -50 9 0 15 -9 15 -24 0 -29 14 -40 38 -31 13 5 14
8 3 15 -17 10 -41 76 -41 113 0 47 25 62 94 59 97 -4 97 -4 94 -77 -2 -66 3
-82 21 -70 16 9 14 111 -2 127 -7 7 -16 21 -20 30 -5 14 -20 17 -85 17 -46 0
-84 -5 -91 -12z"/>
<path d="M5207 4714 c-13 -13 -7 -24 14 -24 11 0 19 5 17 12 -5 14 -22 21 -31
12z"/>
<path d="M4607 4692 c-34 -37 -15 -132 26 -132 22 0 23 3 22 63 -2 87 -15 105
-48 69z"/>
<path d="M5160 4641 c0 -27 6 -53 13 -59 21 -16 78 -20 84 -5 3 7 11 13 19 13
9 0 13 10 13 28 -2 44 -9 62 -25 62 -11 0 -13 -6 -9 -19 3 -11 1 -22 -5 -26
-5 -3 -10 -15 -10 -26 0 -13 -7 -19 -24 -19 -19 0 -26 7 -31 30 -4 16 -4 39 0
50 5 14 2 20 -9 20 -12 0 -16 -11 -16 -49z"/>
<path d="M4697 4553 c-12 -11 -8 -23 8 -23 8 0 15 7 15 15 0 16 -12 20 -23 8z"/>
<path d="M4618 4523 c-42 -6 -33 -25 10 -21 20 2 36 7 35 13 -2 12 -10 13 -45
8z"/>
<path d="M2584 4185 c-22 -12 -62 -39 -88 -59 -46 -34 -51 -36 -128 -36 -76 0
-85 3 -182 50 -95 46 -108 50 -177 50 -63 0 -80 -4 -112 -25 -20 -14 -37 -30
-37 -35 0 -5 -8 -16 -17 -26 -15 -15 -18 -37 -18 -135 0 -116 0 -118 31 -155
16 -21 47 -51 67 -67 33 -27 42 -30 114 -30 68 0 85 4 135 32 32 17 64 31 72
31 8 0 16 6 18 13 3 8 36 13 104 15 82 3 102 1 113 -12 8 -9 19 -16 27 -16 7
0 33 -13 57 -30 41 -27 52 -30 126 -30 l80 0 54 53 c68 67 97 126 97 200 0 31
-4 57 -10 57 -5 0 -13 12 -16 28 -9 36 -95 118 -133 127 -17 4 -33 11 -36 16
-11 17 -99 8 -141 -16z"/>
<path d="M1329 4109 c-64 -35 -81 -60 -82 -128 -1 -50 2 -64 22 -85 13 -14 40
-29 60 -32 20 -4 51 -13 69 -21 29 -12 37 -11 68 3 46 22 56 43 56 124 0 82
-15 107 -82 139 -54 25 -64 25 -111 0z"/>
<path d="M3243 4093 c-23 -3 -33 -11 -37 -29 -4 -13 -11 -24 -16 -24 -17 0
-12 -116 5 -130 8 -7 15 -19 15 -26 0 -8 8 -14 18 -14 10 0 27 -7 38 -15 10
-8 28 -14 39 -14 11 0 29 6 39 14 11 8 26 15 34 15 52 0 73 139 28 193 -19 23
-32 29 -77 32 -30 1 -68 1 -86 -2z"/>
<path d="M708 4039 c-23 -17 -28 -28 -28 -65 0 -59 25 -84 85 -84 80 0 125 79
73 127 -52 47 -88 53 -130 22z"/>
<path d="M3926 4037 c-50 -31 -70 -67 -45 -82 5 -4 14 -18 19 -31 21 -55 129
-15 130 48 0 19 -10 35 -33 52 -38 29 -44 30 -71 13z m47 -53 c18 -7 20 -14
11 -38 -9 -24 -57 -20 -73 6 -12 19 -11 23 5 35 10 7 23 11 29 8 5 -3 18 -8
28 -11z"/>
<path d="M2630 3540 c0 -5 -8 -10 -18 -10 -10 0 -49 -22 -87 -50 -40 -29 -80
-50 -95 -50 -14 0 -31 -5 -38 -12 -8 -8 -21 -9 -49 0 -21 6 -51 14 -67 17 -15
3 -35 13 -43 20 -8 8 -23 15 -34 15 -10 0 -19 4 -19 8 0 5 -19 17 -42 27 -32
15 -65 20 -128 20 -80 0 -87 -2 -118 -30 -52 -46 -72 -101 -72 -192 0 -93 18
-135 86 -200 70 -67 168 -71 276 -14 32 17 64 31 72 31 8 0 16 6 18 12 7 21
172 24 203 4 13 -9 29 -16 34 -16 6 0 31 -14 57 -32 43 -29 54 -32 125 -31 58
0 82 4 94 17 9 9 21 16 26 16 14 0 42 31 77 88 27 45 32 62 32 116 0 42 -6 76
-17 98 -24 45 -109 128 -131 128 -10 0 -27 7 -38 15 -21 16 -104 20 -104 5z"/>
<path d="M3200 3511 c0 -5 -10 -13 -22 -17 -72 -22 -109 -127 -94 -267 6 -53
13 -69 41 -100 19 -20 43 -37 53 -37 11 0 25 -7 32 -15 9 -11 33 -15 90 -15
60 0 79 3 84 15 3 8 14 15 24 15 19 0 82 59 82 77 0 6 7 16 15 23 11 10 15 35
15 110 0 75 -4 100 -15 110 -8 7 -15 20 -15 30 0 9 -16 31 -35 48 -34 32 -35
32 -145 32 -61 0 -110 -4 -110 -9z"/>
<path d="M1281 3414 c-17 -14 -31 -34 -31 -44 0 -10 -4 -22 -10 -25 -27 -16 6
-177 40 -195 24 -13 121 -13 155 0 14 5 39 23 55 40 28 29 30 36 30 108 0 48
-5 84 -12 94 -30 36 -63 48 -129 48 -58 0 -72 -4 -98 -26z"/>
<path d="M3873 3364 c-27 -29 -33 -42 -33 -80 0 -50 32 -104 61 -104 9 0 19
-7 23 -15 3 -9 19 -15 41 -15 22 0 38 6 41 15 4 8 15 15 25 15 11 0 23 8 26
18 4 9 13 23 20 30 19 19 17 101 -2 108 -8 4 -15 10 -15 15 0 5 -9 18 -20 29
-16 16 -32 20 -77 19 -52 -1 -61 -4 -90 -35z m84 -5 c8 -8 13 -8 17 0 15 24
53 12 69 -21 20 -40 5 -48 -43 -23 -23 12 -43 14 -72 10 -36 -6 -40 -5 -35 10
4 9 7 21 7 26 0 13 44 11 57 -2z m97 -107 c2 -4 -3 -18 -13 -30 -29 -40 -141
-37 -141 3 0 11 11 13 48 8 37 -4 51 -2 61 11 14 17 37 21 45 8z"/>
<path d="M701 3354 c-30 -38 -28 -92 4 -127 34 -36 101 -38 133 -4 31 33 31
105 -1 135 -35 33 -109 31 -136 -4z"/>
<path d="M2610 2844 c-14 -7 -32 -14 -40 -14 -17 0 -77 -60 -99 -99 -22 -39
-17 -187 7 -236 44 -87 105 -113 242 -99 65 6 75 10 120 51 28 25 50 53 50 62
0 9 7 26 15 37 35 46 2 183 -60 247 -20 20 -44 37 -54 37 -9 0 -29 7 -45 15
-35 18 -102 18 -136 -1z"/>
<path d="M3230 2845 c-7 -8 -20 -15 -29 -15 -26 0 -108 -91 -116 -127 -3 -18
-11 -35 -16 -38 -14 -9 -10 -67 6 -95 8 -14 14 -35 15 -46 0 -31 86 -124 114
-124 12 0 31 -7 42 -15 24 -18 62 -18 94 0 14 8 37 14 51 15 15 0 32 7 39 15
7 8 21 15 32 15 10 0 21 7 24 15 4 8 16 15 29 15 12 0 28 7 35 15 9 11 32 15
77 15 58 0 69 -3 106 -32 55 -43 77 -66 77 -78 0 -5 11 -10 24 -10 13 0 29 -7
36 -15 7 -8 19 -15 27 -15 7 0 16 7 19 15 4 10 20 15 44 15 24 0 40 5 44 15 3
8 15 15 26 15 11 0 23 7 26 15 4 8 10 15 15 15 12 0 49 38 49 50 0 16 -20 12
-26 -5 -4 -8 -12 -15 -20 -15 -8 0 -14 -6 -14 -14 0 -16 -30 -26 -77 -26 -23
0 -33 5 -33 15 0 9 10 15 26 15 57 0 112 61 84 94 -7 9 -4 18 10 31 25 23 25
31 1 52 -16 13 -17 20 -9 39 9 18 6 31 -16 68 -14 25 -34 50 -44 55 -14 9 -13
10 10 11 15 0 33 -7 42 -15 8 -8 19 -15 25 -15 6 0 11 -6 11 -14 0 -8 7 -21
15 -29 10 -10 14 -36 14 -78 0 -149 1 -156 20 -144 7 4 11 46 11 106 0 79 -3
101 -15 105 -8 4 -15 17 -15 30 0 15 -6 24 -15 24 -8 0 -15 7 -15 15 0 8 -6
15 -14 15 -8 0 -16 7 -20 15 -3 8 -16 15 -29 15 -14 0 -30 7 -37 15 -7 9 -29
15 -55 15 -26 0 -48 -6 -55 -15 -7 -8 -23 -15 -37 -15 -13 0 -26 -7 -29 -15
-4 -8 -17 -15 -30 -15 -14 0 -27 -7 -30 -15 -4 -9 -19 -15 -39 -15 -18 0 -38
-7 -45 -15 -8 -9 -30 -15 -60 -15 -30 0 -52 6 -60 15 -7 8 -24 15 -37 15 -14
0 -42 14 -63 30 -21 17 -45 30 -53 30 -8 0 -17 7 -21 15 -4 11 -22 15 -69 15
-45 0 -68 -5 -77 -15z m710 -25 c0 -5 -9 -14 -20 -20 -17 -9 -20 -8 -20 10 0
13 7 20 20 20 11 0 20 -4 20 -10z m40 -130 c0 -21 -24 -28 -35 -10 -8 14 3 30
21 30 8 0 14 -9 14 -20z m20 -135 c-16 -19 -50 -20 -50 0 0 18 41 37 54 24 5
-5 4 -14 -4 -24z"/>
<path d="M1990 2732 c-46 -26 -68 -66 -69 -127 -2 -94 78 -152 179 -130 37 8
80 48 80 75 0 11 5 20 10 20 16 0 12 60 -7 101 -31 65 -129 96 -193 61z"/>
<path d="M4565 2730 c-3 -5 0 -13 8 -16 23 -9 122 0 122 11 0 14 -122 19 -130
5z"/>
<path d="M4530 2696 c0 -7 -7 -19 -15 -26 -10 -8 -15 -31 -15 -66 0 -41 4 -54
15 -54 12 0 15 13 15 59 0 40 5 63 15 71 8 7 15 16 15 21 0 5 -7 9 -15 9 -8 0
-15 -6 -15 -14z"/>
<path d="M4700 2701 c0 -6 4 -11 9 -11 15 0 13 -170 -2 -171 -87 -9 -149 -7
-154 6 -5 15 -23 21 -23 8 1 -27 22 -36 98 -38 78 -3 81 -2 101 26 18 24 21
41 19 96 -3 55 -7 68 -25 81 -15 9 -23 10 -23 3z"/>
<path d="M1331 2681 c-8 -6 -16 -32 -19 -66 -4 -53 -3 -59 23 -81 42 -36 97
-31 129 13 25 35 24 73 -3 112 -20 27 -28 31 -69 31 -26 0 -53 -4 -61 -9z"/>
<path d="M5160 2666 c0 -8 4 -17 9 -20 11 -7 33 18 24 27 -12 12 -33 7 -33 -7z"/>
<path d="M5226 2672 c-3 -5 3 -12 14 -15 15 -4 19 -13 18 -41 -1 -19 -7 -37
-15 -40 -17 -7 -17 -26 1 -26 29 0 45 29 43 78 -2 43 -4 47 -29 50 -14 2 -29
-1 -32 -6z"/>
<path d="M4603 2658 c-16 -21 -9 -96 11 -116 16 -16 18 -16 32 2 19 26 18 32
-7 55 l-21 19 21 7 c25 8 28 30 5 39 -23 9 -30 8 -41 -6z"/>
<path d="M5160 2586 c0 -29 12 -39 35 -30 16 6 16 8 1 16 -9 5 -16 16 -16 23
0 8 -4 15 -10 15 -5 0 -10 -11 -10 -24z"/>
<path d="M3238 2172 c-20 -2 -42 -10 -48 -18 -7 -8 -16 -14 -21 -14 -16 0 -62
-56 -75 -90 -3 -8 -12 -28 -20 -43 -22 -44 -18 -107 11 -158 14 -24 28 -50 32
-58 9 -20 41 -51 52 -51 5 0 17 -7 26 -16 20 -20 158 -22 182 -3 16 14 49 34
73 45 8 4 23 13 32 21 25 22 222 21 244 -1 8 -9 21 -16 28 -16 8 0 19 -7 26
-15 7 -8 21 -15 31 -15 10 0 22 -7 27 -15 7 -13 25 -15 92 -13 46 2 85 8 87
13 6 19 -51 34 -108 29 -43 -4 -59 -1 -69 11 -10 12 -10 15 1 16 156 8 185 11
201 26 10 9 18 25 18 35 0 11 5 28 11 39 10 20 11 20 30 3 20 -18 26 -54 10
-54 -5 0 -13 -9 -16 -20 -3 -11 -10 -20 -16 -20 -11 0 -49 -32 -49 -42 0 -17
23 -7 56 24 19 18 34 38 34 45 0 7 7 13 15 13 12 0 15 19 15 115 0 94 -3 117
-15 121 -8 4 -15 12 -15 20 0 29 -38 54 -72 48 -23 -4 -29 -3 -19 4 26 19 0
32 -65 32 -48 0 -66 -4 -70 -15 -4 -10 -19 -15 -43 -15 -21 0 -46 -7 -57 -15
-11 -8 -42 -14 -75 -15 -37 0 -61 -5 -68 -14 -15 -18 -69 -18 -98 0 -12 8 -42
14 -67 14 -30 0 -46 5 -50 15 -3 8 -15 15 -27 15 -13 0 -30 6 -38 14 -18 15
-76 23 -133 18z m862 -92 c26 -26 27 -70 2 -70 -27 0 -42 20 -42 57 0 38 11
42 40 13z m20 -140 c0 -20 -5 -30 -15 -30 -18 0 -30 24 -21 45 10 28 36 17 36
-15z"/>
<path d="M4583 2104 c-25 -11 -12 -24 23 -24 24 0 34 4 32 13 -5 13 -35 19
-55 11z"/>
<path d="M2609 2064 c-54 -29 -82 -94 -69 -162 11 -64 30 -76 122 -77 79 0 80
0 109 35 24 28 29 43 29 87 0 29 -4 53 -10 53 -5 0 -12 10 -15 23 -7 26 -69
57 -111 56 -16 -1 -41 -7 -55 -15z"/>
<path d="M4530 2064 c0 -9 5 -14 12 -12 18 6 21 28 4 28 -9 0 -16 -7 -16 -16z"/>
<path d="M4655 2070 c-3 -5 2 -10 12 -10 44 0 69 -70 36 -96 -17 -13 -17 -15
0 -28 25 -20 22 -70 -5 -83 -20 -9 -21 -12 -6 -18 25 -10 58 29 58 69 0 19 6
37 13 40 10 5 10 7 0 12 -7 3 -13 18 -13 33 0 17 -12 38 -34 59 -36 33 -51 39
-61 22z"/>
<path d="M4507 2023 c-13 -12 -7 -131 6 -145 7 -7 16 -21 20 -32 6 -16 14 -17
49 -12 23 4 48 12 55 18 18 14 16 55 -2 62 -21 8 -19 38 5 59 22 19 24 26 11
45 -13 21 -43 10 -61 -21 -11 -20 -12 -29 -4 -35 7 -4 12 -28 11 -54 -1 -52
-15 -66 -47 -45 -17 10 -20 23 -20 89 0 72 -6 89 -23 71z"/>
<path d="M1988 1998 c-26 -32 -23 -92 5 -120 19 -19 32 -23 66 -20 38 4 44 8
63 46 l20 42 -22 37 c-20 34 -25 37 -68 37 -36 0 -51 -5 -64 -22z"/>
<path d="M5172 1978 c-18 -18 -15 -53 6 -71 23 -21 82 -23 82 -3 0 8 7 16 15
20 8 3 15 10 15 16 0 13 -37 50 -50 50 -15 0 -12 -17 5 -24 27 -10 18 -44 -15
-51 -16 -4 -34 -4 -40 0 -18 11 -11 47 10 52 11 3 20 9 20 14 0 13 -34 11 -48
-3z"/>
<path d="M4623 1832 c-13 -2 -23 -7 -23 -12 0 -12 34 -22 54 -14 34 13 11 33
-31 26z"/>
<path d="M2016 1513 c-55 -9 -134 -70 -174 -134 -32 -52 -31 -157 1 -218 31
-56 84 -110 116 -117 14 -3 34 -9 43 -15 22 -11 75 -12 82 0 3 4 20 11 38 15
35 6 99 36 109 49 16 22 171 45 192 29 7 -5 29 -12 50 -16 20 -4 37 -11 37
-16 0 -5 10 -12 23 -16 12 -4 25 -12 29 -17 4 -7 47 -11 110 -11 84 0 108 3
133 19 38 25 71 62 95 111 26 50 27 153 3 192 -22 35 -90 103 -125 125 -51 32
-209 17 -238 -23 -3 -4 -36 -30 -74 -59 -60 -44 -75 -51 -116 -51 -50 0 -68
10 -137 78 -68 68 -121 88 -197 75z"/>
<path d="M3216 1495 c-11 -8 -27 -15 -35 -15 -19 -1 -61 -34 -61 -48 0 -5 -7
-15 -15 -22 -8 -7 -15 -22 -15 -34 0 -11 -7 -34 -15 -50 -8 -15 -15 -43 -15
-61 0 -18 7 -46 15 -61 8 -16 15 -36 15 -44 0 -18 45 -69 82 -93 15 -9 42 -17
60 -17 18 0 41 -7 52 -15 16 -12 21 -12 40 0 11 8 37 15 57 15 20 0 42 7 49
15 7 8 17 15 22 15 16 0 68 63 68 81 0 9 7 22 15 29 20 16 20 108 0 134 -8 11
-15 30 -15 42 0 12 -7 27 -15 34 -8 7 -15 18 -15 24 0 17 -55 56 -80 56 -11 0
-23 7 -26 15 -8 21 -141 21 -168 0z"/>
<path d="M1287 1362 c-34 -35 -37 -42 -37 -98 0 -57 2 -63 35 -93 96 -87 235
-23 235 109 0 37 -6 51 -35 83 -32 35 -37 37 -97 37 -61 0 -66 -2 -101 -38z"/>
<path d="M3950 1370 c0 -5 -15 -10 -32 -10 -54 0 -78 -35 -78 -113 0 -61 3
-68 34 -101 30 -33 38 -36 89 -36 49 0 60 4 91 34 35 33 36 35 36 110 0 58 -3
76 -14 76 -8 0 -16 7 -20 15 -3 9 -18 15 -35 15 -16 0 -33 5 -36 10 -3 6 -13
10 -21 10 -8 0 -14 -4 -14 -10z m88 -36 c17 -5 22 -14 22 -39 0 -28 -3 -32
-20 -28 -23 6 -53 49 -45 63 7 12 12 12 43 4z m-88 -10 c0 -10 -33 -33 -47
-34 -7 0 -13 9 -13 20 0 16 7 20 30 20 17 0 30 -3 30 -6z m108 -123 c5 -29
-30 -65 -47 -48 -14 14 -14 33 0 58 14 26 43 20 47 -10z m-138 -19 c0 -10 6
-24 13 -31 6 -8 -3 -5 -20 5 -35 20 -40 29 -20 37 22 9 27 7 27 -11z"/>
<path d="M719 1331 c-44 -44 -46 -65 -12 -117 13 -20 24 -24 63 -24 44 0 50 3
69 34 28 45 26 70 -6 105 -46 48 -68 49 -114 2z"/>
<path d="M1980 681 c-17 -32 -12 -96 10 -120 47 -56 130 -17 130 60 0 66 -12
79 -75 79 -43 0 -56 -4 -65 -19z"/>
<path d="M2622 688 c-7 -7 -12 -33 -12 -58 0 -66 27 -90 103 -90 52 0 57 2 63
25 8 34 -4 96 -23 118 -19 20 -112 24 -131 5z"/>
<path d="M3888 678 c-10 -10 -18 -30 -18 -44 0 -35 47 -94 74 -94 28 0 86 64
86 94 0 52 -104 84 -142 44z m62 -28 c0 -10 7 -23 16 -28 24 -13 13 -46 -16
-50 -39 -4 -54 29 -32 67 20 35 32 40 32 11z"/>
</g>
</svg>
