<?xml version="1.0" encoding="UTF-8" standalone="no"?>
<!-- Generator: Adobe Illustrator 18.1.1, SVG Export Plug-In . SVG Version: 6.00 Build 0)  -->

<svg
   xmlns:dc="http://purl.org/dc/elements/1.1/"
   xmlns:cc="http://creativecommons.org/ns#"
   xmlns:rdf="http://www.w3.org/1999/02/22-rdf-syntax-ns#"
   xmlns:svg="http://www.w3.org/2000/svg"
   xmlns="http://www.w3.org/2000/svg"
   xmlns:sodipodi="http://sodipodi.sourceforge.net/DTD/sodipodi-0.dtd"
   xmlns:inkscape="http://www.inkscape.org/namespaces/inkscape"
   version="1.1"
   id="svg8944"
   sodipodi:docname="catalogIcon-seafile.svg"
   inkscape:version="0.91 r13725"
   x="0px"
   y="0px"
   viewBox="-148.7 277.1 274.7 156"
   enable-background="new -148.7 277.1 274.7 156"
   xml:space="preserve"><metadata
     id="metadata17"><rdf:RDF><cc:Work
         rdf:about=""><dc:format>image/svg+xml</dc:format><dc:type
           rdf:resource="http://purl.org/dc/dcmitype/StillImage" /></cc:Work></rdf:RDF></metadata><defs
     id="defs15" /><sodipodi:namedview
     inkscape:pageopacity="0"
     inkscape:pageshadow="2"
     showgrid="false"
     bordercolor="#666666"
     borderopacity="1"
     pagecolor="#ffffff"
     inkscape:cx="196.87868"
     inkscape:zoom="1.4634505"
     guidetolerance="10"
     fit-margin-left="5"
     fit-margin-top="5"
     inkscape:cy="151.74761"
     id="namedview24"
     objecttolerance="10"
     gridtolerance="10"
     inkscape:window-maximized="1"
     inkscape:window-y="27"
     inkscape:window-x="0"
     inkscape:window-height="704"
     inkscape:window-width="1366"
     fit-margin-bottom="5"
     fit-margin-right="5"
     inkscape:current-layer="svg8944" /><g
     id="Page-1"
     transform="translate(-131.07899,323.47172)"
     style="fill:#000000;fill-rule:evenodd;stroke:none;stroke-width:1"><g
       transform="translate(-136,-170)"
       id="Group-4"
       style="fill:#000000"><g
         transform="translate(135.70312,170.55078)"
         id="fulllogo-whitetext-whitebody-whitemoons"
         style="fill:#000000"><g
           id="logo-2.svg"
           style="fill:#000000"><g
             id="Canvas"
             style="fill:#000000"><g
               id="logo"
               style="fill:#000000"><g
                 transform="translate(62.73,8.61)"
                 id="Group"
                 style="fill:#000000"><g
                   id="g"
                   style="fill:#000000"><g
                     transform="translate(0,7.38)"
                     id="path"
                     style="fill:#000000"><g
                       id="path0-fill"
                       style="fill:#000000"><g
                         transform="translate(0.4674,0.2829)"
                         id="path0_fill-link"
                         style="fill:#000000"><path
                           id="path0_fill"
                           d="m 6.9198816,22.050948 c 0,6.329703 -0.482775,8.396349 -1.7702037,9.921918 C 3.7443168,33.271623 1.9061433,33.989943 0,33.985392 l 0.48278238,3.765276 C 3.4372596,37.791627 6.3013146,36.723372 8.5184388,34.75365 10.825058,32.351583 11.629699,29.029845 11.629699,23.933709 l 0,-23.933709 -4.720543,0 0,22.08342 0.010726,-0.03247 z"
                           inkscape:connector-curvature="0"
                           style="fill:#000000" /></g></g></g><g
                     transform="translate(19.68,7.38)"
                     id="g3472"
                     style="fill:#000000"><g
                       id="path1-fill"
                       style="fill:#000000"><g
                         transform="translate(1.0947,0.2337)"
                         id="path1_fill-link"
                         style="fill:#000000"><path
                           id="path1_fill"
                           d="m 21.821799,19.216167 c 0,2.726664 0,5.128608 0.214512,7.195254 l -4.130463,0 -0.26814,-4.328001 -0.107379,0 c -0.869487,1.512654 -2.123103,2.764179 -3.631698,3.625671 -1.508595,0.861615 -3.217594,1.301955 -4.9510575,1.275756 C 4.8707385,26.984847 0,24.69102 0,15.429243 L 0,0 l 4.7205432,0 0,14.639337 c 0,5.020491 1.5019899,8.396226 5.7826608,8.396226 1.342828,-0.02472 2.648571,-0.448581 3.75348,-1.218561 1.105032,-0.769857 1.960128,-1.851519 2.458278,-3.109317 0.286344,-0.786585 0.43173,-1.618311 0.429147,-2.456187 l 0,-16.22985812 4.720617,0 0,19.19452712 -0.04293,0 z"
                           inkscape:connector-curvature="0"
                           style="fill:#000000" /></g></g></g><g
                     transform="translate(50.43,6.15)"
                     id="g3477"
                     style="fill:#000000"><g
                       id="path2-fill"
                       style="fill:#000000"><g
                         transform="translate(0.8487,0.8241)"
                         id="path2_fill-link"
                         style="fill:#000000"><path
                           id="path2_fill"
                           d="M 0.21456981,9.2696736 C 0.21456981,5.8938525 0.10728503,3.1672377 0,0.61373064 l 4.2377559,0 0.2145735,4.52272476 0.1072806,0 C 5.4867102,3.5159919 6.8351715,2.1817617 8.4593742,1.2778839 10.083565,0.37401471 11.92175,-0.06515445 13.775385,0.00781468 c 6.265497,0 10.985991,5.40996632 10.985991,13.41665132 0,9.489081 -5.675343,14.174151 -11.801358,14.174151 C 11.387488,27.66516 9.8248218,27.318054 8.4254262,26.591616 7.0260306,25.865055 5.8380228,24.784008 4.9780314,23.454624 l -0.1072929,0 0,14.336388 -4.66689675,0 0,-28.5646221 0.0107281,0.043284 z M 4.8814764,16.302666 c 0.012312,0.657927 0.084132,1.313517 0.2145612,1.958406 0.3845226,1.599369 1.290393,3.022233 2.5723851,4.040427 1.2820044,1.018317 2.8658633,1.572924 4.4977043,1.575015 4.988806,0 7.874755,-4.143993 7.874755,-10.192272 0,-5.2909926 -2.735766,-9.8137149 -7.713822,-9.8137149 C 10.652895,3.9177714 9.0424434,4.5280482 7.7516937,5.6043474 6.4609317,6.6806589 5.5639542,8.1612099 5.2033305,9.8106645 5.0142426,10.447091 4.9060887,11.105153 4.8814764,11.769071 l 0,4.522771 0,0.01082 z"
                           inkscape:connector-curvature="0"
                           style="fill:#000000" /></g></g></g><g
                     transform="translate(78.72,7.38)"
                     id="g3482"
                     style="fill:#000000"><g
                       id="path3-fill"
                       style="fill:#000000"><g
                         transform="translate(0.5658,0.2583)"
                         id="path3_fill-link"
                         style="fill:#000000"><path
                           id="path3_fill"
                           d="m 5.1175011,0 5.6753799,15.59148 c 0.590068,1.742049 1.233776,3.819519 1.66296,5.410032 l 0.107256,0 c 0.482775,-1.579689 1.019178,-3.603039 1.66296,-5.507325 l 5.149641,-15.48336707 4.988757,0 L 17.294292,18.826626 C 13.914867,27.872169 11.618974,32.51382 8.4004203,35.348724 6.7740774,36.874293 4.7806656,37.944762 2.6177598,38.453982 L 1.437624,34.418229 c 1.5132936,-0.508482 2.9155674,-1.305645 4.1304753,-2.347947 1.7166864,-1.446726 3.0757503,-3.27672 3.9695421,-5.345088 0.1908222,-0.357192 0.3179304,-0.74538 0.3754944,-1.146852 -0.042373,-0.432714 -0.1509456,-0.85608 -0.3218541,-1.255215 L 0,0.01081993 l 5.1496779,0 L 5.1175011,0 Z"
                           inkscape:connector-curvature="0"
                           style="fill:#000000" /></g></g></g><g
                     transform="translate(107.01,0)"
                     id="g3487"
                     style="fill:#000000"><g
                       id="path4-fill"
                       style="fill:#000000"><g
                         transform="translate(0.3936,0.0492)"
                         id="path4_fill-link"
                         style="fill:#000000"><path
                           id="path4_fill"
                           d="m 8.636445,0 0,7.5739464 6.748272,0 0,3.6571346 -6.748272,0 0,14.217373 c 0,3.24597 0.911922,5.128608 3.540407,5.128608 0.922156,0.01451 1.842073,-0.09471 2.735791,-0.324597 l 0.214512,3.603039 C 13.78461,34.332375 12.365682,34.552545 10.943076,34.504698 9.999654,34.563 9.0549771,34.413186 8.1748506,34.065588 7.2947364,33.71799 6.5003532,33.181095 5.8470387,32.492172 4.5059697,31.074843 4.0231947,28.726896 4.0231947,25.621638 l 0,-14.390557 -4.0231947,0 0,-3.6571346 4.0231947,0 0,-6.3296538 L 8.636445,0 Z"
                           inkscape:connector-curvature="0"
                           style="fill:#000000" /></g></g></g><g
                     transform="translate(126.69,6.15)"
                     id="g3492"
                     style="fill:#000000"><g
                       id="path5-fill"
                       style="fill:#000000"><g
                         transform="translate(0.3198,0.8733)"
                         id="path5_fill-link"
                         style="fill:#000000"><path
                           id="path5_fill"
                           d="m 4.463055,14.671809 c 0.1072929,6.49194 4.1841156,9.164484 8.893884,9.164484 2.462337,0.07798 4.911882,-0.387327 7.177419,-1.363332 l 0.804666,3.429978 c -2.714487,1.149681 -5.63955,1.706502 -8.582817,1.633809 C 4.7741835,27.536748 0,22.19166 0,14.228148 0,6.2647344 4.6132626,0 12.166127,0 c 8.464786,0 10.728478,7.5739464 10.728478,12.432102 -0.008,0.749193 -0.06162,1.497156 -0.160884,2.239707 l -18.2384769,0 -0.032189,0 z m 13.829013,-3.429904 c 0.05363,-3.0512243 -1.23369,-7.8011645 -6.533625,-7.8011645 -4.7741832,0 -6.8555154,4.4686269 -7.2310098,7.8011645 l 13.7753358,0 -0.0107,0 z"
                           inkscape:connector-curvature="0"
                           style="fill:#000000" /></g></g></g><g
                     transform="translate(156.21,6.15)"
                     id="g3497"
                     style="fill:#000000"><g
                       id="path6-fill"
                       style="fill:#000000"><g
                         transform="translate(0.3444,0.8856)"
                         id="path6_fill-link"
                         style="fill:#000000"><path
                           id="path6_fill"
                           d="M 0.21456981,8.8296042 C 0.21456981,5.7242847 0.16092705,3.0517653 0,0.59564103 l 4.1304753,0 0.1609209,5.18273907 0.2145735,0 C 5.6861055,2.2294488 8.5291644,5.446809e-4 11.68334,5.446809e-4 12.135549,-0.00612368 12.58659,0.04846348 13.024347,0.16284339 l 0,4.52273091 c -0.528408,-0.1161981 -1.06839,-0.1706502 -1.609221,-0.1622985 -3.3258342,0 -5.6753802,2.5643163 -6.3190884,6.1565312 -0.1327908,0.739316 -0.2045613,1.488448 -0.2145735,2.239744 l 0,14.065911 -4.66689429,0 0,-18.1558578 z"
                           inkscape:connector-curvature="0"
                           style="fill:#000000" /></g></g></g></g></g><g
                 id="g3502"
                 style="fill:#000000"><g
                   transform="translate(38.13,0)"
                   id="g3504"
                   style="fill:#000000"><g
                     id="path7-fill"
                     style="fill:#000000"><g
                       transform="translate(0.9963,0.3813)"
                       id="path7_fill-link"
                       style="fill:#000000"><path
                         id="path7_fill"
                         d="M 7.2490419,3.49812 C 7.2802347,4.2209295 7.0981455,4.9368141 6.7258245,5.5552335 6.3535035,6.1736406 5.8076664,6.6667845 5.1573777,6.9722673 4.507089,7.2777624 3.7815612,7.3818573 3.0726015,7.2714033 2.3636418,7.160937 1.7030949,6.840891 1.1745245,6.3517323 0.6459591,5.8625859 0.27312888,5.2263069 0.10320155,4.5234111 -0.06672541,3.8205153 -0.0261129,3.0825891 0.21990063,2.4029772 0.46591539,1.723353 0.90627507,1.1326049 1.4852742,0.70545174 2.0642598,0.27829857 2.7558765,0.03393804 3.4726098,0.00328692 4.4327847,-0.03777515 5.3698479,0.30724047 6.0779466,0.96253773 6.7860453,1.6178313 7.2072588,2.5298148 7.2490419,3.49812 Z"
                         inkscape:connector-curvature="0"
                         style="fill:#000000" /></g></g></g><g
                   transform="translate(2.46,36.9)"
                   id="g3509"
                   style="fill:#000000"><g
                     id="path8-fill"
                     style="fill:#000000"><g
                       transform="translate(0.3198,1.2054)"
                       id="path8_fill-link"
                       style="fill:#000000"><path
                         id="path8_fill"
                         d="M 22.465458,8.7749553 C 12.809835,8.7749553 4.3772256,5.236848 0,0 c 1.6302297,4.699092 4.6685388,8.7708963 8.694378,11.651827 4.025913,2.880869 8.840133,4.428455 13.776492,4.428455 4.936359,0 9.750579,-1.547586 13.776492,-4.428455 C 40.273152,8.7708963 43.311498,4.699092 44.94174,0 40.553715,5.236848 32.121204,8.7749553 22.465458,8.7749553 Z"
                         inkscape:connector-curvature="0"
                         style="fill:#000000" /></g></g></g><g
                   transform="translate(2.46,4.92)"
                   id="g3514"
                   style="fill:#000000"><g
                     id="path9-fill"
                     style="fill:#000000"><g
                       transform="translate(0.3075,0.5904)"
                       id="path9_fill-link"
                       style="fill:#000000"><path
                         id="path9_fill"
                         d="m 22.476159,7.3053513 c 9.655746,0 18.08838,3.5381197 22.465581,8.7749307 C 43.311498,11.381227 40.273152,7.3094226 36.247362,4.428492 32.221449,1.5475614 27.407229,0 22.47087,0 17.534511,0 12.720291,1.5475614 8.694378,4.428492 4.6685388,7.3094226 1.6302297,11.381227 0,16.080282 4.3879635,10.854295 12.820536,7.3053513 22.476159,7.3053513 Z"
                         inkscape:connector-curvature="0"
                         style="fill:#000000" /></g></g></g><g
                   transform="translate(2.46,51.66)"
                   id="g3519"
                   style="fill:#000000"><g
                     id="path10-fill"
                     style="fill:#000000"><g
                       transform="translate(0.3813,0.9963)"
                       id="path10_fill-link"
                       style="fill:#000000"><path
                         id="path10_fill"
                         d="M 9.1363047,4.4075574 C 9.1758984,5.318889 8.9464665,6.2215737 8.4770739,7.0013199 8.0076813,7.7810661 7.3194225,8.4028188 6.4994553,8.787858 5.6794881,9.1728849 4.7646633,9.3038922 3.8708346,9.1642749 2.9769936,9.0246576 2.1443328,8.620701 1.4782632,8.0035485 0.81220344,7.386396 0.3426903,6.5837964 0.12917091,5.6973846 -0.08434811,4.8109605 -0.0322704,3.8805762 0.27881025,3.0240288 0.58989201,2.1674691 1.1459873,1.4232699 1.8766848,0.88564059 2.6073909,0.34801005 3.4798422,0.04113058 4.3835847,0.00385413 5.5924041,-0.04600606 6.7715067,0.38954838 7.6624203,1.215037 8.5533339,2.0405208 9.0833532,3.1885905 9.1363047,4.4075574 l 0,0 z"
                         inkscape:connector-curvature="0"
                         style="fill:#000000" /></g></g></g><g
                   transform="translate(0,6.15)"
                   id="g3524"
                   style="fill:#000000"><g
                     id="path11-fill"
                     style="fill:#000000"><g
                       transform="translate(1.0701,0.0738)"
                       id="path11_fill-link"
                       style="fill:#000000"><path
                         id="path11_fill"
                         d="M 2.7978933,5.4074367 C 2.2676649,5.4305484 1.7425533,5.2944735 1.2890277,5.0164689 0.83549964,4.738452 0.47395344,4.3310022 0.25014633,3.8456688 0.02633873,3.3603354 -0.04966715,2.8189509 0.03174827,2.2900263 0.11316381,1.761114 0.34834092,1.2684498 0.70751199,0.87438609 1.0666831,0.4803273 1.5336993,0.20259084 2.0494506,0.07633282 2.5652019,-0.04992533 3.1065003,-0.01902982 3.6048348,0.16510905 4.1031693,0.34924743 4.5361416,0.67835115 4.8489306,1.1107638 5.1617196,1.5431826 5.3402787,2.0594628 5.3620005,2.5942668 5.3910777,3.3100161 5.1374394,4.0081887 4.6567431,4.5355758 4.1760468,5.0629752 3.5075418,5.3765268 2.7978933,5.4074367 l 0,0 z"
                         inkscape:connector-curvature="0"
                         style="fill:#000000" /></g></g></g></g></g></g></g></g></g></g></svg>